<svg width="24" height="20" viewBox="0 0 24 20" fill="none" xmlns="http://www.w3.org/2000/svg">
<g id="notas_partida">
<g id="burbuja-de-dialogo">
<path id="Shape" fill-rule="evenodd" clip-rule="evenodd" d="M2.59343 19.7262H4.16046C5.7232 19.7262 7.21641 19.0862 8.31834 17.9571C9.4825 18.2628 10.7864 18.4295 12.036 18.4295C15.4021 18.4295 18.2426 17.4579 20.2504 15.6199C21.1626 14.785 21.87 13.8016 22.3532 12.6971C22.82 11.6299 23.0568 10.4999 23.0568 9.33851C23.0568 6.9481 22.062 4.72331 20.2556 3.07393C18.2505 1.24313 15.4082 0.275391 12.0361 0.275391C9.35922 0.275391 6.9003 1.02853 4.92508 2.45332C3.10742 3.76452 1.79916 5.58896 1.24138 7.59062C0.776505 9.25881 0.85314 10.955 1.46298 12.4958C2.07325 14.0377 3.21331 15.3823 4.77238 16.4043C4.67207 17.2463 4.29897 18.0226 3.70151 18.6194L2.59343 19.7262ZM2.492 7.93836C3.37506 4.76952 6.66858 1.57211 12.0361 1.57211C15.0785 1.57211 17.6179 2.42241 19.3797 4.03104C20.9138 5.43175 21.7586 7.31667 21.7586 9.33851C21.7586 13.0925 18.7161 17.1328 12.0361 17.1328C10.765 17.1328 9.43607 16.9449 8.29398 16.6036L7.887 16.4821L7.61257 16.8059C7.06067 17.4572 6.35589 17.9331 5.57919 18.1956C5.89815 17.5455 6.07635 16.8264 6.09608 16.0797L6.10604 15.7025L5.78257 15.5075C2.88764 13.7625 1.65753 10.9329 2.492 7.93836Z" fill="#008894"/>
</g>
<g id="Group-23">
<path id="Path-11" d="M7.08398 7.52267H16.913" stroke="#008894" stroke-width="1.2" stroke-linecap="round" stroke-linejoin="round"/>
<path id="Path-11-Copy" d="M7.08398 11.1457H16.913" stroke="#008894" stroke-width="1.2" stroke-linecap="round" stroke-linejoin="round"/>
</g>
</g>
</svg>
