<svg width="71" height="21" viewBox="0 0 71 21" fill="none" xmlns="http://www.w3.org/2000/svg">
<rect x="0.5" y="1" width="70" height="19" rx="5.5" fill="white"/>
<path d="M14.5469 10.0352V10.4395C14.5469 11.0879 14.459 11.6699 14.2832 12.1855C14.1074 12.7012 13.8594 13.1406 13.5391 13.5039C13.2188 13.8633 12.8359 14.1387 12.3906 14.3301C11.9492 14.5215 11.459 14.6172 10.9199 14.6172C10.3848 14.6172 9.89453 14.5215 9.44922 14.3301C9.00781 14.1387 8.625 13.8633 8.30078 13.5039C7.97656 13.1406 7.72461 12.7012 7.54492 12.1855C7.36914 11.6699 7.28125 11.0879 7.28125 10.4395V10.0352C7.28125 9.38281 7.36914 8.80078 7.54492 8.28906C7.7207 7.77344 7.96875 7.33398 8.28906 6.9707C8.61328 6.60742 8.99609 6.33008 9.4375 6.13867C9.88281 5.94727 10.373 5.85156 10.9082 5.85156C11.4473 5.85156 11.9375 5.94727 12.3789 6.13867C12.8242 6.33008 13.207 6.60742 13.5273 6.9707C13.8516 7.33398 14.1016 7.77344 14.2773 8.28906C14.457 8.80078 14.5469 9.38281 14.5469 10.0352ZM12.7715 10.4395V10.0234C12.7715 9.57031 12.7305 9.17188 12.6484 8.82812C12.5664 8.48438 12.4453 8.19531 12.2852 7.96094C12.125 7.72656 11.9297 7.55078 11.6992 7.43359C11.4688 7.3125 11.2051 7.25195 10.9082 7.25195C10.6113 7.25195 10.3477 7.3125 10.1172 7.43359C9.89062 7.55078 9.69727 7.72656 9.53711 7.96094C9.38086 8.19531 9.26172 8.48438 9.17969 8.82812C9.09766 9.17188 9.05664 9.57031 9.05664 10.0234V10.4395C9.05664 10.8887 9.09766 11.2871 9.17969 11.6348C9.26172 11.9785 9.38281 12.2695 9.54297 12.5078C9.70312 12.7422 9.89844 12.9199 10.1289 13.041C10.3594 13.1621 10.623 13.2227 10.9199 13.2227C11.2168 13.2227 11.4805 13.1621 11.7109 13.041C11.9414 12.9199 12.1348 12.7422 12.291 12.5078C12.4473 12.2695 12.5664 11.9785 12.6484 11.6348C12.7305 11.2871 12.7715 10.8887 12.7715 10.4395ZM20.7578 11.6699H22.5098C22.4746 12.2441 22.3164 12.7539 22.0352 13.1992C21.7578 13.6445 21.3691 13.9922 20.8691 14.2422C20.373 14.4922 19.7754 14.6172 19.0762 14.6172C18.5293 14.6172 18.0391 14.5234 17.6055 14.3359C17.1719 14.1445 16.8008 13.8711 16.4922 13.5156C16.1875 13.1602 15.9551 12.7305 15.7949 12.2266C15.6348 11.7227 15.5547 11.1582 15.5547 10.5332V9.94141C15.5547 9.31641 15.6367 8.75195 15.8008 8.24805C15.9688 7.74023 16.207 7.30859 16.5156 6.95312C16.8281 6.59766 17.2012 6.32422 17.6348 6.13281C18.0684 5.94141 18.5527 5.8457 19.0879 5.8457C19.7988 5.8457 20.3984 5.97461 20.8867 6.23242C21.3789 6.49023 21.7598 6.8457 22.0293 7.29883C22.3027 7.75195 22.4668 8.26758 22.5215 8.8457H20.7637C20.7441 8.50195 20.6758 8.21094 20.5586 7.97266C20.4414 7.73047 20.2637 7.54883 20.0254 7.42773C19.791 7.30273 19.4785 7.24023 19.0879 7.24023C18.7949 7.24023 18.5391 7.29492 18.3203 7.4043C18.1016 7.51367 17.918 7.67969 17.7695 7.90234C17.6211 8.125 17.5098 8.40625 17.4355 8.74609C17.3652 9.08203 17.3301 9.47656 17.3301 9.92969V10.5332C17.3301 10.9746 17.3633 11.3633 17.4297 11.6992C17.4961 12.0312 17.5977 12.3125 17.7344 12.543C17.875 12.7695 18.0547 12.9414 18.2734 13.0586C18.4961 13.1719 18.7637 13.2285 19.0762 13.2285C19.4434 13.2285 19.7461 13.1699 19.9844 13.0527C20.2227 12.9355 20.4043 12.7617 20.5293 12.5312C20.6582 12.3008 20.7344 12.0137 20.7578 11.6699ZM28.5215 5.96875V14.5H26.7695V5.96875H28.5215ZM31.7148 9.51367V14.5H30.0273V8.16016H31.6094L31.7148 9.51367ZM31.4688 11.1074H31.0117C31.0117 10.6387 31.0723 10.2168 31.1934 9.8418C31.3145 9.46289 31.4844 9.14062 31.7031 8.875C31.9219 8.60547 32.1816 8.40039 32.4824 8.25977C32.7871 8.11523 33.127 8.04297 33.502 8.04297C33.7988 8.04297 34.0703 8.08594 34.3164 8.17188C34.5625 8.25781 34.7734 8.39453 34.9492 8.58203C35.1289 8.76953 35.2656 9.01758 35.3594 9.32617C35.457 9.63477 35.5059 10.0117 35.5059 10.457V14.5H33.8066V10.4512C33.8066 10.1699 33.7676 9.95117 33.6895 9.79492C33.6113 9.63867 33.4961 9.5293 33.3438 9.4668C33.1953 9.40039 33.0117 9.36719 32.793 9.36719C32.5664 9.36719 32.3691 9.41211 32.2012 9.50195C32.0371 9.5918 31.9004 9.7168 31.791 9.87695C31.6855 10.0332 31.6055 10.2168 31.5508 10.4277C31.4961 10.6387 31.4688 10.8652 31.4688 11.1074ZM39.8945 8.16016V9.35547H36.2031V8.16016H39.8945ZM37.1172 6.5957H38.8047V12.5898C38.8047 12.7734 38.8281 12.9141 38.875 13.0117C38.9258 13.1094 39 13.1777 39.0977 13.2168C39.1953 13.252 39.3184 13.2695 39.4668 13.2695C39.5723 13.2695 39.666 13.2656 39.748 13.2578C39.834 13.2461 39.9062 13.2344 39.9648 13.2227L39.9707 14.4648C39.8262 14.5117 39.6699 14.5488 39.502 14.5762C39.334 14.6035 39.1484 14.6172 38.9453 14.6172C38.5742 14.6172 38.25 14.5566 37.9727 14.4355C37.6992 14.3105 37.4883 14.1113 37.3398 13.8379C37.1914 13.5645 37.1172 13.2051 37.1172 12.7598V6.5957ZM43.7734 14.6172C43.2812 14.6172 42.8398 14.5391 42.4492 14.3828C42.0586 14.2227 41.7266 14.002 41.4531 13.7207C41.1836 13.4395 40.9766 13.1133 40.832 12.7422C40.6875 12.3672 40.6152 11.9688 40.6152 11.5469V11.3125C40.6152 10.832 40.6836 10.3926 40.8203 9.99414C40.957 9.5957 41.1523 9.25 41.4062 8.95703C41.6641 8.66406 41.9766 8.43945 42.3438 8.2832C42.7109 8.12305 43.125 8.04297 43.5859 8.04297C44.0352 8.04297 44.4336 8.11719 44.7812 8.26562C45.1289 8.41406 45.4199 8.625 45.6543 8.89844C45.8926 9.17188 46.0723 9.5 46.1934 9.88281C46.3145 10.2617 46.375 10.6836 46.375 11.1484V11.8516H41.3359V10.7266H44.7168V10.5977C44.7168 10.3633 44.6738 10.1543 44.5879 9.9707C44.5059 9.7832 44.3809 9.63477 44.2129 9.52539C44.0449 9.41602 43.8301 9.36133 43.5684 9.36133C43.3457 9.36133 43.1543 9.41016 42.9941 9.50781C42.834 9.60547 42.7031 9.74219 42.6016 9.91797C42.5039 10.0938 42.4297 10.3008 42.3789 10.5391C42.332 10.7734 42.3086 11.0312 42.3086 11.3125V11.5469C42.3086 11.8008 42.3438 12.0352 42.4141 12.25C42.4883 12.4648 42.5918 12.6504 42.7246 12.8066C42.8613 12.9629 43.0254 13.084 43.2168 13.1699C43.4121 13.2559 43.6328 13.2988 43.8789 13.2988C44.1836 13.2988 44.4668 13.2402 44.7285 13.123C44.9941 13.002 45.2227 12.8203 45.4141 12.5781L46.2344 13.4688C46.1016 13.6602 45.9199 13.8438 45.6895 14.0195C45.4629 14.1953 45.1895 14.3398 44.8691 14.4531C44.5488 14.5625 44.1836 14.6172 43.7734 14.6172ZM49.0234 9.54297V14.5H47.3359V8.16016H48.9238L49.0234 9.54297ZM50.9336 8.11914L50.9043 9.68359C50.8223 9.67188 50.7227 9.66211 50.6055 9.6543C50.4922 9.64258 50.3887 9.63672 50.2949 9.63672C50.0566 9.63672 49.8496 9.66797 49.6738 9.73047C49.502 9.78906 49.3574 9.87695 49.2402 9.99414C49.127 10.1113 49.041 10.2539 48.9824 10.4219C48.9277 10.5898 48.8965 10.7812 48.8887 10.9961L48.5488 10.8906C48.5488 10.4805 48.5898 10.1035 48.6719 9.75977C48.7539 9.41211 48.873 9.10938 49.0293 8.85156C49.1895 8.59375 49.3848 8.39453 49.6152 8.25391C49.8457 8.11328 50.1094 8.04297 50.4062 8.04297C50.5 8.04297 50.5957 8.05078 50.6934 8.06641C50.791 8.07812 50.8711 8.0957 50.9336 8.11914ZM53.3828 9.51367V14.5H51.6953V8.16016H53.2773L53.3828 9.51367ZM53.1367 11.1074H52.6797C52.6797 10.6387 52.7402 10.2168 52.8613 9.8418C52.9824 9.46289 53.1523 9.14062 53.3711 8.875C53.5898 8.60547 53.8496 8.40039 54.1504 8.25977C54.4551 8.11523 54.7949 8.04297 55.1699 8.04297C55.4668 8.04297 55.7383 8.08594 55.9844 8.17188C56.2305 8.25781 56.4414 8.39453 56.6172 8.58203C56.7969 8.76953 56.9336 9.01758 57.0273 9.32617C57.125 9.63477 57.1738 10.0117 57.1738 10.457V14.5H55.4746V10.4512C55.4746 10.1699 55.4355 9.95117 55.3574 9.79492C55.2793 9.63867 55.1641 9.5293 55.0117 9.4668C54.8633 9.40039 54.6797 9.36719 54.4609 9.36719C54.2344 9.36719 54.0371 9.41211 53.8691 9.50195C53.7051 9.5918 53.5684 9.7168 53.459 9.87695C53.3535 10.0332 53.2734 10.2168 53.2188 10.4277C53.1641 10.6387 53.1367 10.8652 53.1367 11.1074ZM61.8789 13.0703V10.2461C61.8789 10.043 61.8457 9.86914 61.7793 9.72461C61.7129 9.57617 61.6094 9.46094 61.4688 9.37891C61.332 9.29688 61.1543 9.25586 60.9355 9.25586C60.748 9.25586 60.5859 9.28906 60.4492 9.35547C60.3125 9.41797 60.207 9.50977 60.1328 9.63086C60.0586 9.74805 60.0215 9.88672 60.0215 10.0469H58.334C58.334 9.77734 58.3965 9.52148 58.5215 9.2793C58.6465 9.03711 58.8281 8.82422 59.0664 8.64062C59.3047 8.45312 59.5879 8.30664 59.916 8.20117C60.248 8.0957 60.6191 8.04297 61.0293 8.04297C61.5215 8.04297 61.959 8.125 62.3418 8.28906C62.7246 8.45312 63.0254 8.69922 63.2441 9.02734C63.4668 9.35547 63.5781 9.76562 63.5781 10.2578V12.9707C63.5781 13.3184 63.5996 13.6035 63.6426 13.8262C63.6855 14.0449 63.748 14.2363 63.8301 14.4004V14.5H62.125C62.043 14.3281 61.9805 14.1133 61.9375 13.8555C61.8984 13.5938 61.8789 13.332 61.8789 13.0703ZM62.1016 10.6387L62.1133 11.5938H61.1699C60.9473 11.5938 60.7539 11.6191 60.5898 11.6699C60.4258 11.7207 60.291 11.793 60.1855 11.8867C60.0801 11.9766 60.002 12.082 59.9512 12.2031C59.9043 12.3242 59.8809 12.457 59.8809 12.6016C59.8809 12.7461 59.9141 12.877 59.9805 12.9941C60.0469 13.1074 60.1426 13.1973 60.2676 13.2637C60.3926 13.3262 60.5391 13.3574 60.707 13.3574C60.9609 13.3574 61.1816 13.3066 61.3691 13.2051C61.5566 13.1035 61.7012 12.9785 61.8027 12.8301C61.9082 12.6816 61.9629 12.541 61.9668 12.4082L62.4121 13.123C62.3496 13.2832 62.2637 13.4492 62.1543 13.6211C62.0488 13.793 61.9141 13.9551 61.75 14.1074C61.5859 14.2559 61.3887 14.3789 61.1582 14.4766C60.9277 14.5703 60.6543 14.6172 60.3379 14.6172C59.9355 14.6172 59.5703 14.5371 59.2422 14.377C58.918 14.2129 58.6602 13.9883 58.4688 13.7031C58.2812 13.4141 58.1875 13.0859 58.1875 12.7188C58.1875 12.3867 58.25 12.0918 58.375 11.834C58.5 11.5762 58.6836 11.3594 58.9258 11.1836C59.1719 11.0039 59.4785 10.8691 59.8457 10.7793C60.2129 10.6855 60.6387 10.6387 61.123 10.6387H62.1016Z" fill="#FEB319"/>
<rect x="0.5" y="1" width="70" height="19" rx="5.5" stroke="#FEB319"/>
</svg>
