<?xml version="1.0" encoding="UTF-8"?>
<svg width='22px' height='21px' viewBox='0 0 22 21' version='1.1' xmlns='http://www.w3.org/2000/svg'>
  <!-- Generator: Sketch 52.6 (67491) - http://www.bohemiancoding.com/sketch -->
  <title>Group 2 Copy</title>
  <desc>Created with Sketch.</desc>
  <g id="Page-1" stroke="none" stroke-width="1" fill="none" fill-rule="evenodd">
    <g id="1_cat-copy-2" transform="translate(-1718.000000, -183.000000)" fill="#C2C3C9">
      <g id="Group-2-Copy" transform="translate(1718.000000, 183.000000)">
        <path d="M21.5315,18.6372 C21.6235,18.7292 21.5515,18.9482 21.3715,19.1292 L19.9515,20.5502 C19.7695,20.7312 19.5515,20.8042 19.4595,20.7132 L13.1385,14.3992 C13.0475,14.3072 13.1185,14.0882 13.2995,13.9062 L14.7195,12.4862 C14.9005,12.3052 15.1185,12.2322 15.2115,12.3252 L21.5315,18.6372 Z" id="Fill-5"></path>
        <path d="M11.6154,10.9751 C9.5254,13.0701 6.1334,13.0731 4.0394,10.9791 C1.9454,8.8881 1.9414,5.4961 4.0334,3.4021 C6.1254,1.3091 9.5174,1.3051 11.6114,3.3991 C13.7054,5.4891 13.7074,8.8811 11.6154,10.9751 M2.8474,2.2171 C0.1014,4.9651 0.1034,9.4201 2.8534,12.1651 C5.6034,14.9121 10.0564,14.9101 12.8024,12.1601 C15.5494,9.4101 15.5474,4.9571 12.7974,2.2121 C10.0494,-0.5349 5.5924,-0.5309 2.8474,2.2171" id="Fill-7"></path>
      </g>
    </g>
  </g>
</svg>
