<svg width="173" height="23" viewBox="0 0 173 23" fill="none" xmlns="http://www.w3.org/2000/svg">
<path fill-rule="evenodd" clip-rule="evenodd" d="M95.327 22.8057C95.327 22.9029 95.4243 22.9028 95.5217 22.9028C95.619 22.9028 95.7163 22.8057 95.8137 22.7086L105.743 17.2682C105.937 17.2682 106.035 17.0739 106.035 16.8796V5.9018C106.035 5.80465 105.937 5.61035 105.743 5.5132L95.8137 0.0728617C95.619 -0.0242872 95.5217 -0.0242872 95.327 0.0728617L85.3981 5.5132C85.2034 5.61035 85.106 5.7075 85.106 5.9018V16.9768C85.106 17.0739 85.2034 17.2682 85.3981 17.3654L95.327 22.8057ZM95.5216 21.8343L86.0795 16.5883V6.19338L95.5216 0.947336L104.964 6.19338V16.5883L95.5216 21.8343Z" fill="#008894"/>
<path fill-rule="evenodd" clip-rule="evenodd" d="M85.3008 17.2683C85.3981 17.3655 85.4954 17.3655 85.5928 17.3655C85.5928 17.3655 85.6901 17.3655 85.7875 17.2683L95.7164 11.828C95.9111 11.828 96.0084 11.6337 96.0084 11.4394C96.0084 11.3422 95.9111 11.1479 95.7164 11.0508L85.7875 5.51329C85.5928 5.41614 85.3981 5.41614 85.3008 5.51329C85.2034 5.61044 85.1061 5.70759 85.1061 5.90189V16.8797C85.1061 16.9769 85.1061 17.1712 85.3008 17.2683ZM94.5483 11.4392L86.0795 16.1023V6.77602L94.5483 11.4392Z" fill="#008894"/>
<path fill-rule="evenodd" clip-rule="evenodd" d="M95.327 22.8059C95.327 22.9031 95.4243 22.9031 95.5217 22.9031C95.5704 22.9031 95.619 22.8788 95.6677 22.8545C95.7164 22.8302 95.765 22.8059 95.8137 22.8059C95.9111 22.7088 96.0084 22.6116 96.0084 22.4173V11.5367C96.0084 11.4395 96.0084 11.2452 95.8137 11.1481C95.619 11.0509 95.5217 11.0509 95.327 11.1481L85.3981 16.5884C85.2034 16.5884 85.1061 16.7827 85.1061 16.977C85.1061 17.0741 85.2034 17.2684 85.3981 17.3656L95.327 22.8059ZM95.035 21.5428L86.5662 16.8796L95.035 12.2165V21.5428Z" fill="#008894"/>
<path fill-rule="evenodd" clip-rule="evenodd" d="M95.2297 22.8058C95.327 22.9029 95.4243 22.9029 95.5217 22.9029C95.619 22.9029 95.7164 22.8058 95.7164 22.7086L105.645 17.2683C105.84 17.2683 105.937 17.074 105.937 16.8797V5.90189C105.937 5.80474 105.937 5.61044 105.743 5.51329C105.548 5.41614 105.451 5.41614 105.256 5.51329L95.327 11.0508C95.1323 11.1479 95.035 11.2451 95.035 11.4394V22.4172C95.035 22.5143 95.035 22.7086 95.2297 22.8058ZM96.0084 21.5427V11.7306L104.964 6.77602V16.5881L96.0084 21.5427Z" fill="#008894"/>
<path fill-rule="evenodd" clip-rule="evenodd" d="M167.263 9.98209C169.112 7.94196 170.864 5.80469 170.864 5.80469H172.227V16.1025H170.864V7.74767L163.759 16.1025H162.396V5.80469H163.759C164.245 6.38758 165.705 8.13626 167.263 9.98209ZM163.759 7.74759V14.0623C163.759 14.0623 165.024 12.605 166.484 10.9535C165.219 9.49627 164.051 8.13619 163.759 7.74759Z" fill="#008894"/>
<path fill-rule="evenodd" clip-rule="evenodd" d="M116.937 5.80469H113.627V16.1025H115.185V12.0222H117.521L119.76 16.1025H121.512L119.176 12.1194C118.981 11.7308 118.884 11.6336 118.884 11.6336C120.052 11.245 120.831 10.1764 120.831 8.8163C120.831 7.45622 120.052 6.38758 118.981 5.99899C118.592 5.90184 118.105 5.80469 116.937 5.80469ZM119.273 8.91343C119.273 10.0792 118.494 10.7593 117.326 10.7593V10.8564H115.185V7.16475H116.937C117.716 7.16475 118.105 7.2619 118.397 7.35904C118.981 7.65049 119.273 8.13624 119.273 8.91343Z" fill="#008894"/>
<path d="M125.308 11.7308L121.707 5.80469H123.459L125.503 9.2049C125.892 9.78779 126.184 10.4678 126.184 10.4678C126.184 10.4678 126.476 9.78779 126.866 9.2049L128.813 5.80469H130.565L126.963 11.7308V16.1025H125.406V11.7308H125.308Z" fill="#008894"/>
<path d="M131.928 5.80469H133.388L138.158 12.508C138.547 13.0909 139.034 13.9652 139.034 13.9652C139.034 13.9652 138.936 13.0909 138.936 12.508V5.80469H140.494V16.1025H139.034L134.167 9.3992C133.777 8.8163 133.29 7.94196 133.29 7.94196C133.29 7.94196 133.388 8.8163 133.388 9.3992V16.1025H131.83L131.928 5.80469Z" fill="#008894"/>
<path fill-rule="evenodd" clip-rule="evenodd" d="M146.432 5.80469H142.83V16.1025H146.432C149.741 16.1025 151.883 14.2566 151.883 10.9536C151.883 7.65052 149.741 5.80469 146.432 5.80469ZM150.325 10.9535C150.325 13.4794 148.768 14.8395 146.334 14.8395H144.387V7.06757H146.334C148.671 7.06757 150.325 8.42765 150.325 10.9535Z" fill="#008894"/>
<path d="M153.538 5.80469H159.865V7.06762H155.095V10.2735H158.989V11.5365H155.095V14.8395H160.157V16.1025H153.635L153.538 5.80469Z" fill="#008894"/>
<path d="M123.167 19.9885C123.07 19.5028 122.68 19.2113 122.096 19.2113C121.512 19.2113 121.123 19.5028 121.123 19.8914C121.123 20.3771 121.707 20.4743 122.291 20.6686C122.875 20.8629 123.654 21.0572 123.654 21.8344C123.654 22.5144 123.07 23.0002 122.096 23.0002C121.22 23.0002 120.636 22.5144 120.441 21.8344L120.928 21.7372C121.025 22.223 121.415 22.6116 122.096 22.6116C122.68 22.6116 123.07 22.3201 123.07 21.8344C123.07 21.2515 122.291 21.1543 121.707 20.96C121.22 20.8629 120.539 20.5714 120.539 19.8914C120.539 19.2113 121.123 18.8228 121.999 18.8228C122.778 18.8228 123.362 19.3085 123.556 19.8914L123.167 19.9885Z" fill="#008894"/>
<path d="M164.051 19.9885C163.953 19.5028 163.564 19.2113 162.98 19.2113C162.396 19.2113 162.006 19.5028 162.006 19.8914C162.006 20.3771 162.59 20.4743 163.174 20.6686C163.759 20.8629 164.537 21.0572 164.537 21.8344C164.537 22.5144 163.953 23.0002 162.98 23.0002C162.104 23.0002 161.52 22.5144 161.325 21.8344L161.812 21.7372C161.909 22.223 162.298 22.6116 162.98 22.6116C163.564 22.6116 163.953 22.3201 163.953 21.8344C163.953 21.2515 163.174 21.1543 162.59 20.96C162.104 20.8629 161.422 20.5714 161.422 19.8914C161.422 19.2113 162.006 18.8228 162.882 18.8228C163.661 18.8228 164.245 19.3085 164.44 19.8914L164.051 19.9885Z" fill="#008894"/>
<path d="M130.468 18.8228V19.3085H129.007V22.903H128.521V19.3085H127.061V18.8228H130.468Z" fill="#008894"/>
<path d="M137.671 18.8228V21.2515C137.671 22.4173 136.989 23.0002 135.919 23.0002C134.848 23.0002 134.167 22.4173 134.167 21.2515V18.8228H134.653V21.2515C134.653 22.1258 135.043 22.6116 135.919 22.6116C136.697 22.6116 137.184 22.223 137.184 21.2515V18.8228H137.671Z" fill="#008894"/>
<path fill-rule="evenodd" clip-rule="evenodd" d="M145.75 20.8629C145.75 19.6971 144.777 18.8228 143.511 18.8228H141.759V22.903H143.609C144.777 22.903 145.75 22.0287 145.75 20.8629ZM145.264 20.8629C145.264 21.8344 144.485 22.4172 143.609 22.4172H142.343V19.2113H143.609C144.485 19.2113 145.264 19.8914 145.264 20.8629Z" fill="#008894"/>
<path d="M149.644 22.903V18.8228H150.131V22.903H149.644Z" fill="#008894"/>
<path fill-rule="evenodd" clip-rule="evenodd" d="M158.502 20.8629C158.502 19.5999 157.529 18.7256 156.263 18.7256C154.998 18.7256 154.024 19.5999 154.024 20.8629C154.024 22.1258 154.998 23.0001 156.263 23.0001C157.529 23.0001 158.502 22.1258 158.502 20.8629ZM158.015 20.8629C158.015 21.8344 157.237 22.5144 156.263 22.5144C155.29 22.5144 154.511 21.8344 154.608 20.8629C154.608 19.8914 155.29 19.2113 156.263 19.2113C157.237 19.2113 158.015 19.8914 158.015 20.8629Z" fill="#008894"/>
<path fill-rule="evenodd" clip-rule="evenodd" d="M4.8341 3.48486H0.772705V14.7128H2.0298V9.9008H4.9308C5.4143 9.9008 5.8978 9.80055 6.2846 9.60006C6.6714 9.39956 6.9615 9.19906 7.2516 8.89831C7.3031 8.81823 7.36146 8.73815 7.42119 8.65617C7.58579 8.43029 7.76085 8.19004 7.8318 7.89582L7.83181 7.89582C7.9285 7.49482 8.0252 7.09383 8.0252 6.69283C8.0252 6.29184 7.9285 5.89084 7.83181 5.48985L7.8318 5.48984C7.7351 5.08885 7.5417 4.7881 7.2516 4.48735C6.9615 4.18661 6.5747 3.98611 6.1879 3.78561C5.8011 3.58511 5.3176 3.48486 4.8341 3.48486ZM4.83413 8.79806H1.93313V4.5876H4.83413C5.12423 4.5876 5.41433 4.68785 5.60773 4.7881C5.89783 4.88835 6.09123 4.9886 6.28463 5.1891C6.47803 5.38959 6.67143 5.59009 6.67143 5.89084C6.76813 6.09134 6.86483 6.39208 6.86483 6.69283C6.86483 6.99358 6.86483 7.09383 6.76813 7.39458C6.67143 7.69532 6.47803 7.89582 6.28463 8.09632C6.09123 8.29682 5.89783 8.49732 5.60773 8.59756C5.41433 8.69781 5.12423 8.79806 4.83413 8.79806Z" fill="#008894"/>
<path fill-rule="evenodd" clip-rule="evenodd" d="M9.47569 8.99841C9.37899 9.49966 9.28229 10.0009 9.28229 10.6024C9.28229 11.2039 9.37899 11.8054 9.57239 12.2064C9.76579 12.7076 9.95919 13.1086 10.2493 13.5096C10.5394 13.9106 10.9262 14.2114 11.313 14.4119C11.6998 14.6124 12.1833 14.7126 12.7635 14.7126C13.3437 14.7126 13.8272 14.6124 14.3107 14.4119C14.6975 14.2114 15.0843 13.9106 15.3744 13.5096C15.6645 13.1086 15.8579 12.7076 16.0513 12.2064C16.148 11.7051 16.2447 11.2039 16.2447 10.6024C16.2447 10.0009 16.2447 9.49966 16.0513 8.99841C15.8579 8.49717 15.6645 8.09617 15.3744 7.69518C15.3178 7.63655 15.2613 7.57412 15.2033 7.5101C14.9638 7.24571 14.6999 6.95435 14.3107 6.79293C13.8272 6.59244 13.247 6.49219 12.7635 6.49219C12.28 6.49219 11.7965 6.59244 11.313 6.79293C10.9262 6.99343 10.5394 7.29418 10.2493 7.69518C9.95919 8.09617 9.66909 8.49717 9.47569 8.99841ZM10.6361 11.8057C10.5394 11.4047 10.4427 11.0037 10.4427 10.6027C10.4427 10.2017 10.5394 9.8007 10.6361 9.3997C10.7328 8.9987 10.9262 8.69796 11.1196 8.39721C11.313 8.09646 11.6031 7.89596 11.8932 7.69547C12.1833 7.59522 12.4734 7.49497 12.8602 7.49497C13.247 7.49497 13.5371 7.49497 13.8272 7.69547C14.1173 7.89596 14.4074 8.09646 14.6008 8.39721C14.7942 8.69796 14.9876 8.9987 15.0843 9.3997C15.181 9.8007 15.2777 10.2017 15.2777 10.6027C15.2777 11.0037 15.181 11.4047 15.0843 11.8057C14.9876 12.2067 14.7942 12.5074 14.6008 12.8082C14.4074 13.1089 14.1173 13.3094 13.8272 13.5099C13.5371 13.6102 13.247 13.7104 12.8602 13.7104C12.4734 13.7104 12.1833 13.7104 11.8932 13.5099C11.6031 13.3094 11.313 13.1089 11.1196 12.8082C10.9262 12.5074 10.7328 12.2067 10.6361 11.8057Z" fill="#008894"/>
<path d="M22.3368 7.99577L20.5962 14.6122H19.4358L17.2117 6.59229H18.3721L20.016 13.1085L21.6599 6.69253H22.917L24.6576 13.2087L26.3982 6.69253H27.5586L25.3345 14.7125H24.1741L22.3368 7.99577Z" fill="#008894"/>
<path fill-rule="evenodd" clip-rule="evenodd" d="M29.6367 11.8073C29.5589 11.4987 29.4926 11.2353 29.4926 10.9031L35.1012 10.8029V10.3017C35.1012 9.80041 35.1012 9.29916 34.9078 8.79792C34.8698 8.71926 34.8319 8.63675 34.7932 8.55265C34.6348 8.20799 34.4641 7.83668 34.2309 7.59493C33.9408 7.29418 33.554 6.99343 33.1672 6.79293C32.6837 6.59244 32.2002 6.49219 31.7167 6.49219C31.2332 6.49219 30.7497 6.59244 30.2662 6.79293C29.8794 6.99343 29.4926 7.29418 29.2025 7.69518C28.9124 8.09617 28.719 8.49717 28.5256 8.99841C28.3322 9.49966 28.2355 10.0009 28.2355 10.5022C28.2355 11.0034 28.3322 11.6049 28.5256 12.1061C28.6223 12.7076 28.9124 13.1086 29.2025 13.5096C29.5893 13.9106 29.8794 14.2114 30.3629 14.4119C30.7497 14.6124 31.2332 14.7126 31.8134 14.7126C32.1338 14.7126 32.3879 14.6438 32.6855 14.5632C32.7472 14.5465 32.8107 14.5293 32.8771 14.5121C33.2639 14.4119 33.554 14.2114 33.8441 14.0109L33.8441 14.0109C34.1342 13.8104 34.4243 13.5096 34.6177 13.2089C34.9078 12.9081 35.0045 12.5071 35.1012 12.1061H34.0375C33.6507 13.2089 32.8771 13.7101 31.8134 13.7101C31.5233 13.7101 31.2332 13.7101 30.9431 13.5096C30.653 13.4094 30.3629 13.2089 30.1695 12.9081C29.9761 12.7076 29.7827 12.4069 29.686 12.0059C29.6694 11.9371 29.6528 11.8712 29.6367 11.8073ZM33.8441 8.9987C33.9408 9.29945 34.0375 9.6002 34.0375 9.90095H29.5893C29.5893 9.6002 29.686 9.29945 29.7827 8.9987C29.8794 8.69796 30.0728 8.39721 30.2662 8.19671C30.4596 7.99621 30.653 7.79571 30.9431 7.69547C31.2332 7.59522 31.5233 7.49497 31.8134 7.49497C32.2002 7.49497 32.4903 7.59522 32.7804 7.69547C32.9738 7.79571 33.2639 7.99621 33.4573 8.19671C33.6507 8.49746 33.7474 8.69796 33.8441 8.9987Z" fill="#008894"/>
<path d="M36.5517 6.59259H37.6154V7.99608C37.8088 7.49483 38.0989 7.09383 38.4857 6.79309C38.7758 6.49234 39.1626 6.39209 39.6461 6.39209C39.7428 6.39209 39.8395 6.39209 39.9362 6.39209C40.0329 6.39209 40.1296 6.39209 40.2263 6.49234V7.69533C39.8395 7.69533 39.7428 7.69533 39.5494 7.69533C39.2593 7.69533 38.9692 7.69533 38.7758 7.89583C38.5824 7.99608 38.389 8.19657 38.1956 8.39707C38.0022 8.59757 37.9055 8.79807 37.8088 9.09881C37.7121 9.39956 37.7121 9.60006 37.7121 9.90081V14.7128H36.5517L36.5517 6.59259Z" fill="#008894"/>
<path fill-rule="evenodd" clip-rule="evenodd" d="M42.2077 11.8073C42.13 11.4987 42.0636 11.2353 42.0636 10.9031L47.6722 10.8029V10.3017C47.6722 9.80041 47.6722 9.29916 47.4788 8.79792C47.4409 8.71926 47.4029 8.63675 47.3643 8.55265C47.2058 8.20799 47.0351 7.83668 46.8019 7.59493C46.5118 7.29418 46.125 6.99343 45.7382 6.79293C45.2547 6.59244 44.7712 6.49219 44.2877 6.49219C43.8042 6.49219 43.224 6.59244 42.8372 6.79293C42.4504 6.99343 42.0636 7.29418 41.7735 7.69518C41.4834 8.09617 41.29 8.49717 41.0966 8.99841C40.9032 9.49966 40.8065 10.0009 40.8065 10.5022C40.8065 11.0034 40.9032 11.6049 41.0966 12.1061C41.1933 12.7076 41.4834 13.1086 41.7735 13.5096C42.1603 13.9106 42.4504 14.2114 42.9339 14.4119C43.3207 14.6124 43.8042 14.7126 44.3844 14.7126C44.7049 14.7126 44.9589 14.6438 45.2566 14.5632C45.3182 14.5465 45.3818 14.5293 45.4481 14.5121C45.8349 14.4119 46.125 14.2114 46.4151 14.0109L46.4151 14.0109C46.7052 13.8104 46.9953 13.5096 47.1887 13.2089C47.4788 12.9081 47.5755 12.5071 47.6722 12.1061H46.6085C46.2217 13.2089 45.4481 13.7101 44.3844 13.7101C44.0943 13.7101 43.8042 13.7101 43.5141 13.5096C43.224 13.4094 42.9339 13.2089 42.7405 12.9081C42.5471 12.7076 42.3537 12.4069 42.257 12.0059C42.2404 11.9371 42.2238 11.8712 42.2077 11.8073ZM46.4151 8.9987C46.5118 9.29945 46.6085 9.6002 46.6085 9.90095H42.1603C42.1603 9.6002 42.257 9.29945 42.3537 8.9987C42.4504 8.69796 42.6438 8.39721 42.8372 8.19671C43.0306 7.99621 43.224 7.79571 43.5141 7.69547C43.8042 7.59522 44.0943 7.49497 44.3844 7.49497C44.7712 7.49497 45.158 7.59522 45.3514 7.69547C45.5448 7.79571 45.8349 7.99621 46.0283 8.19671C46.2217 8.49746 46.3184 8.69796 46.4151 8.9987Z" fill="#008894"/>
<path fill-rule="evenodd" clip-rule="evenodd" d="M54.2478 14.6125H55.4082L55.5049 3.48486H54.3445V7.79557L53.861 7.29433C53.6676 7.09383 53.4742 6.99358 53.2808 6.89333L52.7006 6.59258C52.5072 6.49234 52.3138 6.49234 52.1204 6.49234C51.6369 6.49234 51.1534 6.59258 50.7666 6.79308C50.3798 6.99358 50.0897 7.29433 49.7996 7.69532C49.5095 8.09632 49.3161 8.49732 49.2194 8.99856C49.1227 9.49981 49.026 10.0011 49.026 10.6025C49.026 11.204 49.1227 11.7053 49.2194 12.2065C49.3161 12.7078 49.5095 13.1088 49.7996 13.5098C49.993 13.9108 50.3798 14.2115 50.7666 14.412C51.1534 14.6125 51.6369 14.7128 52.1204 14.7128C52.5072 14.7128 52.894 14.6125 53.2808 14.412C53.6676 14.2115 53.9577 13.9108 54.2478 13.4095V14.6125ZM54.0544 9.29932C54.1511 9.70032 54.2478 10.1013 54.2478 10.5023L54.1511 10.7028C54.1511 11.1038 54.1511 11.5048 54.0544 11.9058C53.9577 12.3068 53.861 12.6075 53.6676 12.9083C53.4742 13.209 53.2808 13.4095 52.9907 13.61C52.7973 13.7103 52.4105 13.8105 52.1204 13.8105C51.8303 13.8105 51.5402 13.8105 51.2501 13.61C50.96 13.4095 50.7666 13.209 50.5732 12.9083C50.3798 12.6075 50.2831 12.3068 50.1864 11.9058C49.993 11.5048 49.993 11.1038 49.993 10.7028C49.993 10.3018 50.0897 9.90082 50.1864 9.49982C50.2831 9.09882 50.3798 8.79808 50.5732 8.49733C50.7666 8.19658 50.96 7.99608 51.2501 7.79558C51.4435 7.69534 51.8303 7.59509 52.1204 7.59509C52.4105 7.59509 52.7006 7.59509 52.9907 7.79558C53.2808 7.89583 53.4742 8.09633 53.6676 8.39708C53.861 8.59758 53.9577 8.89832 54.0544 9.29932Z" fill="#008894"/>
<path fill-rule="evenodd" clip-rule="evenodd" d="M61.8871 3.48486H60.7267V14.5123H61.8871V13.3093C61.9838 13.4095 62.0563 13.5098 62.1288 13.61C62.2014 13.7103 62.2739 13.8105 62.3706 13.9108C62.4673 14.011 62.6607 14.2115 62.8541 14.3118C62.983 14.4454 63.112 14.49 63.2409 14.5345C63.3054 14.5568 63.3698 14.5791 63.4343 14.6125C63.6277 14.7128 63.8211 14.7128 64.0145 14.7128C64.498 14.7128 64.9815 14.6125 65.3683 14.412C65.7551 14.2115 66.0452 13.9108 66.3353 13.5098C66.3895 13.3974 66.4512 13.2851 66.5142 13.1706C66.676 12.8763 66.8459 12.5674 66.9155 12.2065C67.0122 11.7053 67.1089 11.204 67.1089 10.6025C67.1089 10.0011 67.0122 9.49981 66.9155 8.99856C66.8188 8.49732 66.6254 8.09632 66.3353 7.69532C66.1419 7.29433 65.7551 6.99358 65.3683 6.79308C64.9815 6.59258 64.498 6.49234 64.0145 6.49234C63.8211 6.49234 63.6277 6.49234 63.4343 6.59258C63.2409 6.69283 63.0475 6.79308 62.9508 6.89333C62.7574 6.99358 62.564 7.09383 62.3706 7.29433C62.1772 7.39458 61.9838 7.59507 61.8871 7.79557V3.48486ZM61.9355 11.3043C61.9113 11.1038 61.8871 10.9033 61.8871 10.7028L61.7904 10.5023C61.7904 10.1013 61.8871 9.70032 61.9838 9.29932C62.0805 8.99857 62.1772 8.69783 62.3706 8.39708C62.564 8.19658 62.7574 7.99608 63.0475 7.79558L63.0475 7.79558C63.3376 7.69533 63.6277 7.59509 63.9178 7.59509C64.2079 7.59509 64.498 7.59509 64.7881 7.79558C65.0782 7.99608 65.2716 8.19658 65.465 8.49733C65.6584 8.79808 65.7551 9.09882 65.8518 9.49982C65.8518 9.70032 65.876 9.90082 65.9002 10.1013C65.9244 10.3018 65.9485 10.5023 65.9485 10.7028C65.9485 11.1038 65.9485 11.5048 65.8518 11.9058C65.7551 12.3068 65.6584 12.6075 65.465 12.9083C65.2716 13.209 65.0782 13.4095 64.7881 13.61C64.5947 13.7103 64.3046 13.8105 63.9178 13.8105C63.6277 13.8105 63.3376 13.8105 63.0475 13.61C62.7574 13.4095 62.564 13.209 62.3706 12.9083C62.1772 12.6075 62.0805 12.3068 61.9838 11.9058C61.9838 11.7053 61.9597 11.5048 61.9355 11.3043Z" fill="#008894"/>
<path d="M71.3637 13.2091L73.4911 6.69287H74.6515L71.3637 16.417C71.267 16.7178 71.1703 17.0185 70.9769 17.219C70.8802 17.4195 70.6868 17.62 70.4934 17.7203C70.3 17.8205 70.2033 17.9208 70.0099 18.021C69.8165 18.1213 69.7198 18.1213 69.5264 18.1213C69.4297 18.1213 69.2363 18.1213 69.1396 18.1213C69.0429 18.1213 68.8495 18.021 68.7528 18.021V17.0185C68.8495 17.0185 68.9462 17.1188 69.0429 17.1188C69.1396 17.1188 69.333 17.219 69.4297 17.219C69.5264 17.219 69.7198 17.219 69.8165 17.1188C69.9132 17.0185 70.0099 16.9183 70.1066 16.818C70.2033 16.7178 70.3 16.5173 70.3 16.417C70.3967 16.3168 70.3967 16.1163 70.3967 16.016L70.7835 14.813L67.8825 6.69287H69.1396L71.3637 13.2091Z" fill="#008894"/>
</svg>
