<?xml version="1.0" encoding="UTF-8"?>
<svg id="Layer_1" data-name="Layer 1" xmlns="http://www.w3.org/2000/svg" viewBox="0 0 490 148">
  <defs>
    <style>
      .cls-1 {
        fill: #003658;
      }

      .cls-2 {
        fill: #008894;
      }
    </style>
  </defs>
  <g>
    <path class="cls-2" d="M327.43,127.69c-.28,.28-.62,.42-1.02,.42s-.74-.14-1.02-.42c-.28-.28-.42-.62-.42-1.02v-34.67c0-.7,.32-1.16,.97-1.37,.67-.23,1.21-.07,1.63,.47l24.14,31.33v-30.44c0-.4,.14-.74,.42-1.02,.28-.28,.62-.42,1.02-.42s.73,.14,1.02,.42c.28,.28,.42,.62,.42,1.02v34.67c0,.68-.33,1.14-1,1.37-.14,.05-.29,.08-.45,.08-.47,0-.86-.18-1.16-.55l-24.14-31.33v30.44c0,.4-.14,.74-.42,1.02Zm57.7,.42h-23.85c-.4,0-.74-.14-1.02-.42-.28-.28-.42-.62-.42-1.02v-34.67c0-.4,.14-.74,.42-1.02,.28-.28,.62-.42,1.02-.42h23.85c.39,0,.73,.14,1.02,.42,.28,.28,.42,.62,.42,1.02s-.14,.74-.42,1.02c-.3,.28-.64,.42-1.02,.42h-22.4v14.44h16.62c.39,0,.72,.14,1,.42,.3,.28,.45,.62,.45,1.02s-.15,.74-.45,1.02c-.28,.28-.61,.42-1,.42h-16.62v14.44h22.4c.39,0,.73,.14,1.02,.42,.28,.28,.42,.62,.42,1.02s-.14,.74-.42,1.02c-.3,.28-.64,.42-1.02,.42Zm20.06-34.67h-11.92c-.4,0-.74-.14-1.02-.42-.28-.28-.42-.62-.42-1.02s.14-.74,.42-1.02c.28-.28,.62-.42,1.02-.42h26.74c.39,0,.73,.14,1.02,.42,.28,.28,.42,.62,.42,1.02s-.14,.74-.42,1.02c-.3,.28-.64,.42-1.02,.42h-11.92v33.22c0,.4-.14,.74-.42,1.02-.28,.28-.62,.42-1.02,.42s-.74-.14-1.02-.42c-.28-.28-.42-.62-.42-1.02v-33.22Zm44.75,26.79l-.68,.68c-1.45,1.45-2.88,2.89-4.28,4.31h18.2c.4,0,.74,.14,1.02,.42,.28,.28,.42,.62,.42,1.02s-.14,.74-.42,1.02c-.28,.28-.62,.42-1.02,.42h-21.67c-.39,0-.71-.13-.97-.39-.28-.24-.44-.56-.47-.95-.02-.35,.07-.67,.26-.95,.04-.03,.07-.07,.11-.11,.02-.04,.04-.06,.05-.08,.39-.39,.82-.83,1.31-1.34,1.77-1.79,3.58-3.6,5.44-5.44l.66-.66c2.15-2.14,3.74-3.73,4.75-4.78,.26-.26,.63-.62,1.1-1.08,1.68-1.7,2.92-2.99,3.73-3.86,1.47-1.65,2.36-3.2,2.68-4.67,.42-1.94,.17-3.79-.76-5.54-.7-1.33-1.7-2.42-2.99-3.28-1.28-.86-2.65-1.37-4.12-1.52-1.54-.14-2.99,.11-4.36,.76-1.33,.65-2.43,1.6-3.31,2.86-.88,1.24-1.4,2.6-1.58,4.07-.05,.4-.24,.73-.55,.97-.32,.25-.67,.34-1.05,.29-.4-.05-.73-.24-.97-.55-.24-.32-.34-.67-.29-1.08,.24-1.94,.93-3.73,2.05-5.36,1.17-1.68,2.66-2.95,4.46-3.81,1.86-.89,3.82-1.23,5.88-1.02,1.96,.19,3.78,.85,5.46,1.97,1.7,1.14,3.01,2.59,3.94,4.36,1.24,2.36,1.58,4.86,1.02,7.48-.44,1.98-1.57,3.97-3.39,5.99-.82,.93-2.1,2.25-3.83,3.97-.51,.53-.86,.88-1.05,1.08-1.07,1.09-2.66,2.68-4.78,4.78Z"/>
    <path class="cls-2" d="M325.93,90.63l.22,.68h0s0,0,0,0l-.23-.68Zm1.63,.47l.57-.44h0s-.57,.44-.57,.44Zm24.14,31.33l-.57,.44,1.29,1.67v-2.11h-.72Zm2.47-31.46l.51-.51h0s0-.02,0-.02l-.49,.52Zm-.58,37.06l-.23-.68h0s0,0,0,0l.25,.67Zm-1.6-.47l-.57,.44h0s0,.01,0,.01l.56-.45Zm-24.14-31.33l.57-.44-1.29-1.67v2.11h.72Zm-.93,30.96c-.14,.14-.3,.21-.52,.21v1.43c.59,0,1.11-.21,1.53-.63l-1.01-1.01Zm-.52,.21c-.22,0-.37-.07-.52-.21l-1.01,1.01c.42,.42,.94,.63,1.53,.63v-1.43Zm-.52-.21c-.14-.14-.21-.3-.21-.52h-1.43c0,.59,.21,1.11,.63,1.53l1.01-1.01Zm-.21-.52v-34.67h-1.43v34.67h1.43Zm0-34.67c0-.24,.05-.37,.11-.45,.05-.08,.16-.16,.37-.23l-.44-1.36c-.44,.14-.82,.39-1.09,.77-.27,.38-.38,.82-.38,1.28h1.43Zm.49-.69c.23-.08,.38-.07,.47-.04,.1,.03,.22,.1,.36,.28l1.13-.88c-.28-.37-.64-.65-1.09-.77-.44-.13-.9-.09-1.34,.06l.46,1.36Zm.83,.23l24.14,31.33,1.14-.88-24.14-31.33-1.14,.88Zm25.42,30.89v-30.44h-1.43v30.44h1.43Zm0-30.44c0-.22,.07-.37,.21-.52l-1.01-1.01c-.42,.42-.63,.94-.63,1.53h1.43Zm.21-.52c.14-.14,.3-.21,.52-.21v-1.43c-.59,0-1.11,.21-1.53,.63l1.01,1.01Zm.52-.21c.19,0,.36,.06,.53,.23l.98-1.04c-.42-.4-.94-.62-1.52-.62v1.43Zm.52,.21c.14,.14,.21,.3,.21,.52h1.43c0-.59-.21-1.11-.63-1.53l-1.01,1.01Zm.21,.52v34.67h1.43v-34.67h-1.43Zm0,34.67c0,.22-.05,.35-.11,.43-.06,.08-.17,.18-.4,.26l.46,1.36c.44-.15,.82-.39,1.1-.77,.27-.37,.39-.82,.39-1.28h-1.43Zm-.53,.69c-.06,.02-.12,.03-.19,.03v1.43c.24,0,.47-.04,.7-.12l-.5-1.34Zm-.19,.03c-.26,0-.44-.09-.6-.29l-1.11,.9c.43,.54,1.02,.82,1.71,.82v-1.43Zm-.59-.27l-24.14-31.33-1.14,.88,24.14,31.33,1.14-.88Zm-25.42-30.89v30.44h1.43v-30.44h-1.43Zm0,30.44c0,.22-.07,.37-.21,.52l1.01,1.01c.42-.42,.63-.94,.63-1.53h-1.43Zm59.02-35.69l.51-.51h0s0-.02,0-.02l-.49,.52Zm0,2.05l.49,.52h0s0-.02,0-.02l-.51-.51Zm-23.43,.42v-.72h-.72v.72h.72Zm0,14.44h-.72v.72h.72v-.72Zm17.62,.42l-.51,.51h0s0,.02,0,.02l.49-.52Zm0,2.05l-.49-.52h0s0,.02,0,.02l.51,.51Zm-17.62,.42v-.72h-.72v.72h.72Zm0,14.44h-.72v.72h.72v-.72Zm23.43,.42l.51-.51h0s0-.02,0-.02l-.49,.52Zm0,2.05l.49,.52h0s0-.02,0-.02l-.51-.51Zm-1.02-.3h-23.85v1.43h23.85v-1.43Zm-23.85,0c-.22,0-.37-.07-.52-.21l-1.01,1.01c.42,.42,.94,.63,1.53,.63v-1.43Zm-.52-.21c-.14-.14-.21-.3-.21-.52h-1.43c0,.59,.21,1.11,.63,1.53l1.01-1.01Zm-.21-.52v-34.67h-1.43v34.67h1.43Zm0-34.67c0-.22,.07-.37,.21-.52l-1.01-1.01c-.42,.42-.63,.94-.63,1.53h1.43Zm.21-.52c.14-.14,.3-.21,.52-.21v-1.43c-.59,0-1.11,.21-1.53,.63l1.01,1.01Zm.52-.21h23.85v-1.43h-23.85v1.43Zm23.85,0c.19,0,.36,.06,.53,.23l.98-1.04c-.42-.4-.94-.62-1.52-.62v1.43Zm.52,.21c.14,.14,.21,.3,.21,.52h1.43c0-.59-.21-1.11-.63-1.53l-1.01,1.01Zm.21,.52c0,.22-.07,.37-.21,.52l1.01,1.01c.42-.42,.63-.94,.63-1.53h-1.43Zm-.19,.5c-.17,.16-.34,.23-.53,.23v1.43c.58,0,1.09-.22,1.52-.62l-.98-1.04Zm-.53,.23h-22.4v1.43h22.4v-1.43Zm-23.12,.72v14.44h1.43v-14.44h-1.43Zm.72,15.16h16.62v-1.43h-16.62v1.43Zm16.62,0c.19,0,.34,.06,.49,.21l1.01-1.01c-.41-.41-.92-.63-1.5-.63v1.43Zm.51,.23c.16,.15,.22,.3,.22,.5h1.43c0-.6-.23-1.13-.67-1.55l-.98,1.04Zm.22,.5c0,.2-.06,.36-.22,.5l.98,1.04c.44-.41,.67-.94,.67-1.55h-1.43Zm-.24,.52c-.15,.15-.3,.21-.49,.21v1.43c.58,0,1.09-.22,1.5-.63l-1.01-1.01Zm-.49,.21h-16.62v1.43h16.62v-1.43Zm-17.34,.72v14.44h1.43v-14.44h-1.43Zm.72,15.16h22.4v-1.43h-22.4v1.43Zm22.4,0c.19,0,.36,.06,.53,.23l.98-1.04c-.42-.4-.94-.62-1.52-.62v1.43Zm.52,.21c.14,.14,.21,.3,.21,.52h1.43c0-.59-.21-1.11-.63-1.53l-1.01,1.01Zm.21,.52c0,.22-.07,.37-.21,.52l1.01,1.01c.42-.42,.63-.94,.63-1.53h-1.43Zm-.19,.5c-.17,.16-.34,.23-.53,.23v1.43c.58,0,1.09-.22,1.52-.61l-.98-1.04Zm19.53-33.72h.72v-.72h-.72v.72Zm15.84-2.47l.51-.51h0s0-.02,0-.02l-.49,.52Zm0,2.05l.49,.52h0s0-.02,0-.02l-.51-.51Zm-12.95,.42v-.72h-.72v.72h.72Zm-2.89-.72h-11.92v1.43h11.92v-1.43Zm-11.92,0c-.22,0-.37-.07-.52-.21l-1.01,1.01c.42,.42,.94,.63,1.53,.63v-1.43Zm-.52-.21c-.14-.14-.21-.3-.21-.52h-1.43c0,.59,.21,1.11,.63,1.53l1.01-1.01Zm-.21-.52c0-.22,.07-.37,.21-.52l-1.01-1.01c-.42,.42-.63,.94-.63,1.53h1.43Zm.21-.52c.14-.14,.3-.21,.52-.21v-1.43c-.59,0-1.11,.21-1.53,.63l1.01,1.01Zm.52-.21h26.74v-1.43h-26.74v1.43Zm26.74,0c.19,0,.36,.06,.53,.23l.98-1.04c-.42-.4-.94-.62-1.52-.62v1.43Zm.52,.21c.14,.14,.21,.3,.21,.52h1.43c0-.59-.21-1.11-.63-1.53l-1.01,1.01Zm.21,.52c0,.22-.07,.37-.21,.52l1.01,1.01c.42-.42,.63-.94,.63-1.53h-1.43Zm-.19,.5c-.17,.16-.34,.23-.53,.23v1.43c.58,0,1.09-.22,1.52-.62l-.98-1.04Zm-.53,.23h-11.92v1.43h11.92v-1.43Zm-12.64,.72v33.22h1.43v-33.22h-1.43Zm0,33.22c0,.22-.07,.37-.21,.52l1.01,1.01c.42-.42,.63-.94,.63-1.53h-1.43Zm-.21,.52c-.14,.14-.3,.21-.52,.21v1.43c.59,0,1.11-.21,1.53-.63l-1.01-1.01Zm-.52,.21c-.22,0-.37-.07-.52-.21l-1.01,1.01c.42,.42,.94,.63,1.53,.63v-1.43Zm-.52-.21c-.14-.14-.21-.3-.21-.52h-1.43c0,.59,.21,1.11,.63,1.53l1.01-1.01Zm-.21-.52v-33.22h-1.43v33.22h1.43Zm44.03-6.43l-.51-.51h0s.51,.51,.51,.51Zm-4.96,4.99l-.51-.5-1.21,1.22h1.72v-.72Zm-4.44,2.49l.51-.51-.02-.02-.02-.02-.47,.54Zm-.47-.95l-.72,.04h0s0,.03,0,.03l.71-.06Zm.26-.95l-.51-.51-.05,.05-.04,.05,.59,.41Zm.11-.11l.51,.51,.08-.08,.05-.1-.64-.32Zm1.37-1.42l-.51-.5h0s0,0,0,0l.52,.5Zm5.44-5.44l.5,.51h0s-.51-.51-.51-.51Zm.66-.66l-.51-.51h0s.51,.51,.51,.51Zm4.75-4.78l-.51-.51h0s0,0,0,0l.52,.5Zm1.1-1.08l.5,.52h0s0-.01,0-.01l-.51-.5Zm3.73-3.86l.53,.49h0s0,0,0,0l-.53-.48Zm2.68-4.67l-.7-.15h0s.7,.15,.7,.15Zm-.76-5.54l-.63,.33h0s.63-.33,.63-.33Zm-2.99-3.28l-.4,.6h0s.4-.6,.4-.6Zm-4.12-1.52l.08-.71h0s0,0,0,0l-.06,.71Zm-4.36,.76l-.31-.65h0s0,0,0,0l.31,.64Zm-3.31,2.86l.59,.41h0s-.59-.41-.59-.41Zm-1.58,4.07l.71,.09h0s0,0,0,0l-.71-.08Zm-1.6,1.26l.1-.71h0s-.09,.71-.09,.71Zm-1.26-1.63l.71,.09h0s-.71-.09-.71-.09Zm2.05-5.36l-.59-.41h0s.59,.41,.59,.41Zm4.46-3.81l.31,.65h0s-.31-.65-.31-.65Zm5.88-1.02l-.07,.71h0s.07-.71,.07-.71Zm5.46,1.97l.4-.6h0s-.4,.6-.4,.6Zm3.94,4.36l-.64,.33h0s.63-.33,.63-.33Zm1.02,7.48l.7,.15h0s0,0,0,0l-.7-.15Zm-3.39,5.99l-.53-.48h0s0,0,0,0l.54,.48Zm-3.83,3.97l-.5-.51h0s0,.01,0,.01l.52,.5Zm-1.05,1.08l-.51-.51h0s0,0,0,0l.51,.5Zm-5.29,4.27l-.68,.68,1.01,1.01,.68-.68-1.01-1.01Zm-.68,.68c-1.45,1.45-2.88,2.89-4.28,4.31l1.02,1.01c1.4-1.42,2.83-2.85,4.28-4.3l-1.01-1.01Zm-3.77,5.53h18.2v-1.43h-18.2v1.43Zm18.2,0c.22,0,.37,.07,.52,.21l1.01-1.01c-.42-.42-.94-.63-1.53-.63v1.43Zm.52,.21c.14,.14,.21,.3,.21,.52h1.43c0-.59-.21-1.11-.63-1.53l-1.01,1.01Zm.21,.52c0,.22-.07,.37-.21,.52l1.01,1.01c.42-.42,.63-.94,.63-1.53h-1.43Zm-.21,.52c-.14,.14-.3,.21-.52,.21v1.43c.59,0,1.11-.21,1.53-.63l-1.01-1.01Zm-.52,.21h-21.67v1.43h21.67v-1.43Zm-21.67,0c-.2,0-.34-.06-.46-.18l-1.01,1.01c.4,.4,.91,.6,1.48,.6v-1.43Zm-.5-.22c-.14-.12-.21-.26-.23-.47l-1.43,.13c.05,.56,.29,1.05,.71,1.42l.94-1.08Zm-.23-.44c0-.2,.04-.36,.14-.5l-1.18-.81c-.28,.41-.41,.89-.39,1.39l1.43-.07Zm.05-.4h0s0,0,0,0h0s0,0,0,0h0s0,0,0,0h0s0,0,0,0h0s0,0,0,0h0s0,0,0,0h0s0,0,0,0h0s0,0,0,0h0s0,0,0,0h0s0,0,0,0h0s0,0,0,0h0s0,0,0,0h0s0,0,0,0h0s0,0,0,0h0s0,0,0,0h0s0,0,0,0h0s0,0,0,0h0s0,0,0,0h0s0,0,0,0h0s0,0,0,0h0s0,0,0,0h0s0,0,0,0h0s0,0,0,0h0s0,0,0,0h0s0,0,0,0h0s0,0,0,0h0s0,0,0,0h0s0,0,0,0h0s0,0,0,0h0s0,0,0,0h0s0,0,0,0h0s0,0,0,0h0s0,0,0,0h0s0,0,0,0h0s0,0,0,0h0s0,0,0,0h0s0,0,0,0h0s0,0,0,0h0s0,0,0,0h0s0,0,0,0h0s0,0,0,0h0s0,0,0,0h0s0,0,0,0h0s0,0,0,0h0s0,0,0,0h0s0,0,0,0h0s0,0,0,0h0s0,0,0,0h0s0,0,0,0h0s0,0,0,0h0s0,0,0,0h0s0,0,0,0h0s0,0,0,0h0s0,0,0,0h0s0,0,0,0h0s0,0,0,0h0s0,0,0,0h0s0,0,0,0h0s0,0,0,0h0s0,0,0,0h0s0,0,0,0h0s0,0,0,0h0s0,0,0,0h0s0,0,0,0h0s0,0,0,0h0s0,0,0,0h0s0,0,0,0h0s0,0,0,0h0s0,0,0,0h0s0,0,0,0h0s0,0,0,0h0s0,0,0,0h0s0,0,0,0h0s0,0,0,0h0s0,0,0,0h0s0,0,0,0h0s0,0,0,0h0s0,0,0,0h0s0,0,0,0h0s0,0,0,0h0s0,0,0,0h0s0,0,0,0h0s0,0,0,0h0s0,0,0,0h0s0,0,0,0h0s0,0,0,0h0s0,0,0,0h0s0,0,0,0h0s0,0,0,0h0s0,0,0,0h0s0,0,0,0h0s0,0,0,0h0s0,0,0,0h0s0,0,0,0h0s0,0,0,0h0s0,0,0,0h0s0,0,0,0h0s0,0,0,0h0s0,0,0,0h0s0,0,0,0h0s0,0,0,0h0s0,0,0,0h0s0,0,0,0h0s0,0,0,0h0s0,0,0,0h0s0,0,0,0h0s0,0,0,0h0s0,0,0,0h0s0,0,0,0h0s0,0,0,0h0s0,0,0,0h0s0,0,0,0h0s0,0,0,0h0s0,0,0,0h0s0,0,0,0h0s0,0,0,0h0s0,0,0,0h0s0,0,0,0h0s0,0,0,0h0s0,0,0,0h0s0,0,0,0h0s0,0,0,0h0s0,0,0,0h0s0,0,0,0h0s0,0,0,0h0s0,0,0,0h0s0,0,0,0h0s0,0,0,0h0s0,0,0,0h0s0,0,0,0h0s0,0,0,0h0s0,0,0,0h0s0,0,0,0h0s0,0,0,0h0s0,0,0,0h0s0,0,0,0h0s0,0,0,0h0s0,0,0,0h0s0,0,0,0h0s0,0,0,0h0s0,0,0,0h0s0,0,0,0h0s0,0,0,0h0s0,0,0,0h0s0,0,0,0h0s0,0,0,0h0s0,0,0,0h0s0,0,0,0h0s0,0,0,0h0s0,0,0,0h0s0,0,0,0h0s0,0,0,0h0s0,0,0,0h0s0,0,0,0h0s0,0,0,0h0s0,0,0,0h0s0,0,0,0h0s0,0,0,0h0s0,0,0,0h0s0,0,0,0h0s0,0,0,0h0s0,0,0,0h0s0,0,0,0h0s0,0,0,0h0s0,0,0,0h0s0,0,0,0h0s0,0,0,0h0s0,0,0,0h0s0,0,0,0h0s0,0,0,0h0s0,0,0,0h0s0,0,0,0h0s0,0,0,0h0s0,0,0,0h0s0,0,0,0h0s0,0,0,0h0s0,0,0,0h0s0,0,0,0h0s0,0,0,0h0s0,0,0,0h0s0,0,0,0h0s0,0,0,0h0s0,0,0,0h0s0,0,0,0h0s0,0,0,0h0s0,0,0,0h0s0,0,0,0h0s0,0,0,0h0s0,0,0,0h0s0,0,0,0h0s0,0,0,0h0s0,0,0,0h0s0,0,0,0h0s0,0,0,0h0s0,0,0,0h0s0,0,0,0h0s0,0,0,0h0s0,0,0,0h0s0,0,0,0h0s-1.01-1.01-1.01-1.01c0,0,0,0,0,0h0s0,0,0,0h0s0,0,0,0,0,0,0,0h0s0,0,0,0h0s0,0,0,0h0s0,0,0,0,0,0,0,0h0s0,0,0,0h0s0,0,0,0h0s0,0,0,0,0,0,0,0h0s0,0,0,0h0s0,0,0,0h0s0,0,0,0,0,0,0,0h0s0,0,0,0h0s0,0,0,0h0s0,0,0,0,0,0,0,0h0s0,0,0,0h0s0,0,0,0h0s0,0,0,0c0,0,0,0,0,0h0s0,0,0,0h0s0,0,0,0h0s0,0,0,0,0,0,0,0h0s0,0,0,0h0s0,0,0,0h0s0,0,0,0c0,0,0,0,0,0h0s0,0,0,0h0s0,0,0,0h0s0,0,0,0c0,0,0,0,0,0h0s0,0,0,0h0s0,0,0,0h0s0,0,0,0,0,0,0,0h0s0,0,0,0h0s0,0,0,0h0s0,0,0,0,0,0,0,0h0s0,0,0,0h0s0,0,0,0h0s0,0,0,0,0,0,0,0h0s0,0,0,0h0s0,0,0,0h0s0,0,0,0,0,0,0,0h0s0,0,0,0h0s0,0,0,0h0s0,0,0,0,0,0,0,0h0s0,0,0,0h0s0,0,0,0h0s0,0,0,0,0,0,0,0h0s0,0,0,0h0s0,0,0,0h0s0,0,0,0,0,0,0,0h0s0,0,0,0h0s0,0,0,0h0s0,0,0,0,0,0,0,0h0s0,0,0,0h0s0,0,0,0h0s0,0,0,0,0,0,0,0h0s0,0,0,0h0s0,0,0,0h0s0,0,0,0,0,0,0,0h0s0,0,0,0h0s0,0,0,0h0s0,0,0,0,0,0,0,0h0s0,0,0,0h0s0,0,0,0h0s0,0,0,0,0,0,0,0h0s0,0,0,0h0s0,0,0,0h0s0,0,0,0,0,0,0,0h0s0,0,0,0h0s0,0,0,0h0s0,0,0,0,0,0,0,0h0s0,0,0,0h0s0,0,0,0,0,0,0,0h0s0,0,0,0h0s0,0,0,0h0s0,0,0,0,0,0,0,0h0s0,0,0,0h0s0,0,0,0h0s0,0,0,0,0,0,0,0h0s0,0,0,0h0s0,0,0,0h0s0,0,0,0,0,0,0,0h0s0,0,0,0h0s0,0,0,0h0s0,0,0,0,0,0,0,0h0s0,0,0,0h0s0,0,0,0h0s0,0,0,0,0,0,0,0h0s0,0,0,0h0s0,0,0,0h0s0,0,0,0,0,0,0,0h0s0,0,0,0h0s0,0,0,0h0s0,0,0,0,0,0,0,0h0s0,0,0,0h0s0,0,0,0h0s0,0,0,0,0,0,0,0h0s0,0,0,0h0s0,0,0,0h0s0,0,0,0,0,0,0,0h0s0,0,0,0h0s0,0,0,0h0s0,0,0,0c0,0,0,0,0,0h0s0,0,0,0h0s0,0,0,0h0s0,0,0,0c0,0,0,0,0,0h0s0,0,0,0h0s0,0,0,0h0s0,0,0,0,0,0,0,0h0s0,0,0,0h0s0,0,0,0h0s0,0,0,0c0,0,0,0,0,0h0s0,0,0,0h0s0,0,0,0h0s0,0,0,0,0,0,0,0h0s0,0,0,0h0s0,0,0,0h0s0,0,0,0,0,0,0,0h0s0,0,0,0h0s0,0,0,0h0s0,0,0,0,0,0,0,0h0s0,0,0,0h0s0,0,0,0h0s0,0,0,0,0,0,0,0h0s0,0,0,0h0s0,0,0,0h0s0,0,0,0,0,0,0,0h0s0,0,0,0h0s0,0,0,0h0s0,0,0,0,0,0,0,0h0s0,0,0,0h0s0,0,0,0h0s0,0,0,0,0,0,0,0h0s0,0,0,0h0s0,0,0,0h0s0,0,0,0,0,0,0,0h0s0,0,0,0h0s0,0,0,0h0s0,0,0,0,0,0,0,0h0s0,0,0,0h0s0,0,0,0h0s0,0,0,0,0,0,0,0h0s0,0,0,0h0s0,0,0,0h0s0,0,0,0,0,0,0,0h0s0,0,0,0h0s0,0,0,0h0s0,0,0,0,0,0,0,0h0s0,0,0,0h0s0,0,0,0,0,0,0,0h0s0,0,0,0h0s0,0,0,0h0s0,0,0,0,0,0,0,0h0s0,0,0,0h0s0,0,0,0h0s0,0,0,0,0,0,0,0h0s0,0,0,0h0s0,0,0,0h0s0,0,0,0,0,0,0,0h0s0,0,0,0h0s0,0,0,0h0s0,0,0,0,0,0,0,0h0s0,0,0,0h0s0,0,0,0h0s0,0,0,0,0,0,0,0h0s0,0,0,0h0s0,0,0,0h0s0,0,0,0,0,0,0,0h0s0,0,0,0h0s0,0,0,0h0s0,0,0,0,0,0,0,0h0s0,0,0,0h0s0,0,0,0h0s0,0,0,0,0,0,0,0h0s0,0,0,0h0s0,0,0,0h0s0,0,0,0,0,0,0,0h0s0,0,0,0h0s0,0,0,0h0s0,0,0,0c0,0,0,0,0,0h0s0,0,0,0h0s0,0,0,0h0s0,0,0,0c0,0,0,0,0,0h0s0,0,0,0h0s0,0,0,0h0s0,0,0,0c0,0,0,0,0,0h0s0,0,0,0h0s0,0,0,0h0s0,0,0,0c0,0,0,0,0,0h0s0,0,0,0h0s0,0,0,0h0s0,0,0,0,0,0,0,0h0s0,0,0,0h0s0,0,0,0h0s0,0,0,0,0,0,0,0h0s0,0,0,0h0s0,0,0,0h0s0,0,0,0,0,0,0,0h0s0,0,0,0h0s0,0,0,0h0s0,0,0,0,0,0,0,0h0s0,0,0,0h0s0,0,0,0h0s0,0,0,0,0,0,0,0h0s0,0,0,0h0s0,0,0,0h0s0,0,0,0,0,0,0,0h0s0,0,0,0h0s0,0,0,0h0s0,0,0,0,0,0,0,0h0s0,0,0,0h0s0,0,0,0h0s0,0,0,0,0,0,0,0h0s0,0,0,0h0s0,0,0,0h0s0,0,0,0,0,0,0,0h0s0,0,0,0h0s0,0,0,0h0s0,0,0,0,0,0,0,0h0s0,0,0,0h0s0,0,0,0h0s0,0,0,0l1.01,1.01Zm.24-.29s0,.01-.02,.03c-.01,.02-.03,.04-.06,.08l-1.01-1.01c-.09,.09-.15,.2-.19,.27l1.28,.64Zm-.08,.11c.39-.39,.83-.84,1.32-1.35l-1.03-1c-.49,.51-.92,.95-1.3,1.33l1.01,1.01Zm1.32-1.34c1.77-1.78,3.58-3.59,5.43-5.43l-1.01-1.02c-1.86,1.84-3.67,3.65-5.44,5.44l1.02,1.01Zm5.43-5.43l.66-.66-1.01-1.01-.66,.66,1.01,1.01Zm.65-.65c2.15-2.14,3.74-3.73,4.76-4.79l-1.03-1c-1.01,1.04-2.59,2.63-4.74,4.77l1.01,1.02Zm4.76-4.78c.26-.26,.62-.61,1.09-1.07l-.99-1.03c-.47,.46-.85,.82-1.11,1.09l1.01,1.01Zm1.11-1.08c1.68-1.7,2.93-2.99,3.75-3.88l-1.06-.97c-.8,.87-2.03,2.14-3.71,3.84l1.02,1.01Zm3.75-3.89c1.52-1.7,2.49-3.37,2.85-5l-1.4-.3c-.28,1.3-1.09,2.75-2.51,4.35l1.07,.96Zm2.84-5c.46-2.11,.18-4.13-.83-6.03l-1.27,.67c.85,1.6,1.08,3.28,.69,5.05l1.4,.3Zm-.83-6.03c-.76-1.44-1.84-2.62-3.23-3.55l-.79,1.2c1.2,.79,2.11,1.8,2.76,3.02l1.27-.67Zm-3.23-3.54c-1.37-.92-2.86-1.47-4.45-1.64l-.15,1.43c1.35,.14,2.61,.61,3.8,1.41l.8-1.19Zm-4.46-1.64c-1.67-.15-3.25,.12-4.73,.83l.61,1.3c1.25-.59,2.57-.82,3.99-.7l.13-1.43Zm-4.74,.83c-1.45,.7-2.64,1.74-3.58,3.1l1.18,.82c.81-1.16,1.82-2.03,3.03-2.63l-.63-1.29Zm-3.58,3.09c-.94,1.34-1.51,2.81-1.7,4.4l1.42,.17c.16-1.35,.64-2.59,1.45-3.74l-1.17-.83Zm-1.7,4.39c-.03,.22-.12,.37-.28,.5l.88,1.13c.47-.36,.75-.86,.82-1.45l-1.42-.19Zm-.28,.5c-.17,.13-.32,.17-.51,.14l-.19,1.42c.58,.08,1.12-.07,1.59-.43l-.88-1.13Zm-.52,.14c-.22-.03-.37-.12-.5-.28l-1.13,.88c.36,.47,.86,.75,1.45,.82l.19-1.42Zm-.5-.28c-.13-.16-.17-.33-.14-.54l-1.42-.19c-.08,.59,.07,1.14,.43,1.61l1.13-.88Zm-.14-.55c.23-1.83,.87-3.51,1.93-5.04l-1.18-.81c-1.19,1.72-1.91,3.62-2.17,5.67l1.42,.18Zm1.93-5.04c1.1-1.58,2.5-2.77,4.18-3.57l-.62-1.3c-1.92,.91-3.5,2.27-4.74,4.05l1.18,.82Zm4.19-3.57c1.74-.84,3.56-1.15,5.5-.96l.14-1.43c-2.2-.22-4.29,.14-6.27,1.09l.62,1.29Zm5.5-.96c1.84,.18,3.55,.8,5.13,1.85l.8-1.19c-1.78-1.18-3.71-1.88-5.79-2.09l-.14,1.43Zm5.13,1.85c1.6,1.07,2.83,2.44,3.7,4.1l1.27-.67c-.99-1.88-2.38-3.42-4.18-4.62l-.8,1.19Zm3.7,4.1c1.16,2.21,1.48,4.54,.96,7l1.4,.3c.6-2.79,.23-5.46-1.09-7.97l-1.27,.67Zm.96,7c-.4,1.82-1.45,3.71-3.22,5.66l1.06,.96c1.88-2.08,3.08-4.18,3.56-6.31l-1.4-.31Zm-3.22,5.67c-.81,.91-2.07,2.22-3.8,3.93l1.01,1.02c1.74-1.72,3.03-3.05,3.87-4l-1.07-.95Zm-3.81,3.94c-.51,.53-.85,.88-1.04,1.07l1.01,1.01c.2-.2,.55-.56,1.06-1.09l-1.03-1Zm-1.05,1.07c-1.06,1.08-2.66,2.67-4.77,4.77l1.01,1.02c2.12-2.1,3.71-3.7,4.79-4.79l-1.02-1.01Z"/>
  </g>
  <g>
    <path class="cls-1" d="M46.26,20.52c15.7,0,25.24,8.23,25.24,21.88s-9.54,21.96-25.24,21.96h-10.35v21.61h-13.04V20.51h23.39Zm-.28,31.71c7.67,0,12.07-3.74,12.07-9.81s-4.58-9.7-12.07-9.7h-10.07v19.51h10.07Z"/>
    <path class="cls-1" d="M115.2,85.96l-12.99-22.34h-10.68v22.34h-13V20.51h22.91c16.09,0,25.72,8.69,25.72,21.88,0,8.96-4.39,15.51-12.35,18.79l14.97,24.78h-14.58Zm-23.67-33.92h11.59c7.2,0,10.57-4.67,10.57-9.62s-3.45-9.7-10.57-9.7h-11.6v19.32h0Z"/>
    <path class="cls-1" d="M167.54,19.21c18.8,0,34.05,14.31,34.05,34.03s-15.25,34.03-34.05,34.03-33.96-14.29-33.96-34.04,15.15-34.03,33.96-34.03m0,55.25c12.06,0,20.48-8.69,20.48-21.22s-8.42-21.22-20.48-21.22-20.39,8.6-20.39,21.23,8.43,21.22,20.39,21.22"/>
    <path class="cls-1" d="M339.42,20.52V57.57c0,19.25-11.05,29.73-28.25,29.73s-28.25-10.5-28.25-29.73V20.52h13.02V57.36c0,12.12,5.22,17.78,15.23,17.78s15.16-5.61,15.16-17.78V20.52h13.09Z"/>
    <path class="cls-1" d="M360.56,20.52h-13V85.96h13V20.52Z"/>
    <path class="cls-1" d="M382.23,32.67v15.98h26.68l-4.8,11.69h-21.88v25.62h-13.02V20.52h51.26l-4.91,12.15h-33.33Z"/>
    <path class="cls-1" d="M448.27,73.44h-28.37l-4.85,12.52h-14.05l26.94-65.45h12.25l26.95,65.45h-14.01l-4.85-12.52Zm-4.49-11.51l-6.47-16.54c-1.41-3.66-3.09-9.07-3.18-9.07h-.09c-.11,0-1.78,5.41-3.19,9.07l-6.47,16.54h19.39Z"/>
    <path class="cls-1" d="M277.6,78.02l-6.77-6.61c10.07-15.86,5.36-36.88-10.51-46.94-15.87-10.06-36.9-5.36-46.97,10.5-10.07,15.86-5.36,36.88,10.51,46.94,11.72,7.43,26.8,7,38.07-1.09l6.59,6.46,9.07-9.27Zm-56.78-24.78c.02-11.74,9.57-21.24,21.32-21.21,11.75,.02,21.25,9.57,21.22,21.31-.02,11.72-9.55,21.22-21.28,21.21-11.75,0-21.27-9.53-21.26-21.27v-.04Z"/>
  </g>
</svg>