<svg width="24" height="24" viewBox="0 0 24 24" fill="none" xmlns="http://www.w3.org/2000/svg">
<path fill-rule="evenodd" clip-rule="evenodd" d="M2.59343 21.7255H4.16046C5.7232 21.7255 7.21641 21.0855 8.31834 19.9563C9.4825 20.2621 10.7864 20.4287 12.036 20.4287C15.4021 20.4287 18.2426 19.4572 20.2504 17.6192C21.1626 16.7842 21.87 15.8008 22.3532 14.6964C22.82 13.6291 23.0568 12.4991 23.0568 11.3378C23.0568 8.94736 22.062 6.72258 20.2556 5.0732C18.2505 3.2424 15.4082 2.27466 12.0361 2.27466C9.35922 2.27466 6.9003 3.02779 4.92508 4.45259C3.10742 5.76379 1.79916 7.58823 1.24138 9.58989C0.776505 11.2581 0.85314 12.9542 1.46298 14.495C2.07325 16.037 3.21331 17.3816 4.77238 18.4036C4.67207 19.2456 4.29897 20.0218 3.70151 20.6186L2.59343 21.7255ZM2.492 9.93763C3.37506 6.76879 6.66858 3.57138 12.0361 3.57138C15.0785 3.57138 17.6179 4.42168 19.3797 6.03031C20.9138 7.43102 21.7586 9.31593 21.7586 11.3378C21.7586 15.0917 18.7161 19.132 12.0361 19.132C10.765 19.132 9.43607 18.9441 8.29398 18.6029L7.887 18.4813L7.61257 18.8052C7.06067 19.4565 6.35589 19.9324 5.57919 20.1949C5.89815 19.5448 6.07635 18.8256 6.09608 18.079L6.10604 17.7018L5.78257 17.5068C2.88764 15.7618 1.65753 12.9322 2.492 9.93763Z" fill="#008894"/>
<path d="M7.08398 9.52096H16.913" stroke="#008894" stroke-width="1.2" stroke-linecap="round" stroke-linejoin="round"/>
<path d="M7.08398 13.1443H16.913" stroke="#008894" stroke-width="1.2" stroke-linecap="round" stroke-linejoin="round"/>
</svg>
