<svg width="681" height="20" viewBox="0 0 681 20" fill="none" xmlns="http://www.w3.org/2000/svg">
<path d="M5.5 9.5L0.5 7.11325L0.5 12.8868L5.5 10.5L5.5 9.5ZM675.5 10.5001L680.5 12.8868L680.5 7.11331L675.5 9.50006L675.5 10.5001ZM5 10.5L676 10.5001L676 9.50006L5 9.5L5 10.5Z" fill="#424242"/>
<rect width="58" height="20" transform="translate(309.5)" fill="white"/>
<path d="M318.805 3.625H323.047C323.917 3.625 324.664 3.75521 325.289 4.01562C325.919 4.27604 326.404 4.66146 326.742 5.17188C327.081 5.68229 327.25 6.3099 327.25 7.05469C327.25 7.66406 327.146 8.1875 326.938 8.625C326.734 9.05729 326.445 9.41927 326.07 9.71094C325.701 9.9974 325.266 10.2266 324.766 10.3984L324.023 10.7891H320.336L320.32 8.96094H323.062C323.474 8.96094 323.815 8.88802 324.086 8.74219C324.357 8.59635 324.56 8.39323 324.695 8.13281C324.836 7.8724 324.906 7.57031 324.906 7.22656C324.906 6.86198 324.839 6.54688 324.703 6.28125C324.568 6.01562 324.362 5.8125 324.086 5.67188C323.81 5.53125 323.464 5.46094 323.047 5.46094H321.148V15H318.805V3.625ZM325.164 15L322.57 9.92969L325.047 9.91406L327.672 14.8906V15H325.164ZM333.914 12.9766V6.54688H336.164V15H334.047L333.914 12.9766ZM334.164 11.2422L334.828 11.2266C334.828 11.7891 334.763 12.3125 334.633 12.7969C334.503 13.276 334.307 13.6927 334.047 14.0469C333.786 14.3958 333.458 14.6693 333.062 14.8672C332.667 15.0599 332.201 15.1562 331.664 15.1562C331.253 15.1562 330.872 15.099 330.523 14.9844C330.18 14.8646 329.883 14.6797 329.633 14.4297C329.388 14.1745 329.195 13.849 329.055 13.4531C328.919 13.0521 328.852 12.5703 328.852 12.0078V6.54688H331.102V12.0234C331.102 12.2734 331.13 12.4844 331.188 12.6562C331.25 12.8281 331.336 12.9688 331.445 13.0781C331.555 13.1875 331.682 13.2656 331.828 13.3125C331.979 13.3594 332.146 13.3828 332.328 13.3828C332.792 13.3828 333.156 13.2891 333.422 13.1016C333.693 12.9141 333.883 12.6589 333.992 12.3359C334.107 12.0078 334.164 11.6432 334.164 11.2422ZM342.023 6.54688V8.14062H337.102V6.54688H342.023ZM338.32 4.46094H340.57V12.4531C340.57 12.6979 340.602 12.8854 340.664 13.0156C340.732 13.1458 340.831 13.237 340.961 13.2891C341.091 13.3359 341.255 13.3594 341.453 13.3594C341.594 13.3594 341.719 13.3542 341.828 13.3438C341.943 13.3281 342.039 13.3125 342.117 13.2969L342.125 14.9531C341.932 15.0156 341.724 15.0651 341.5 15.1016C341.276 15.138 341.029 15.1562 340.758 15.1562C340.263 15.1562 339.831 15.0755 339.461 14.9141C339.096 14.7474 338.815 14.4818 338.617 14.1172C338.419 13.7526 338.32 13.2734 338.32 12.6797V4.46094ZM347.867 13.0938V9.32812C347.867 9.05729 347.823 8.82552 347.734 8.63281C347.646 8.4349 347.508 8.28125 347.32 8.17188C347.138 8.0625 346.901 8.00781 346.609 8.00781C346.359 8.00781 346.143 8.05208 345.961 8.14062C345.779 8.22396 345.638 8.34635 345.539 8.50781C345.44 8.66406 345.391 8.84896 345.391 9.0625H343.141C343.141 8.70312 343.224 8.36198 343.391 8.03906C343.557 7.71615 343.799 7.43229 344.117 7.1875C344.435 6.9375 344.812 6.74219 345.25 6.60156C345.693 6.46094 346.188 6.39062 346.734 6.39062C347.391 6.39062 347.974 6.5 348.484 6.71875C348.995 6.9375 349.396 7.26562 349.688 7.70312C349.984 8.14062 350.133 8.6875 350.133 9.34375V12.9609C350.133 13.4245 350.161 13.8047 350.219 14.1016C350.276 14.3932 350.359 14.6484 350.469 14.8672V15H348.195C348.086 14.7708 348.003 14.4844 347.945 14.1406C347.893 13.7917 347.867 13.4427 347.867 13.0938ZM348.164 9.85156L348.18 11.125H346.922C346.625 11.125 346.367 11.1589 346.148 11.2266C345.93 11.2943 345.75 11.3906 345.609 11.5156C345.469 11.6354 345.365 11.776 345.297 11.9375C345.234 12.099 345.203 12.276 345.203 12.4688C345.203 12.6615 345.247 12.8359 345.336 12.9922C345.424 13.1432 345.552 13.263 345.719 13.3516C345.885 13.4349 346.081 13.4766 346.305 13.4766C346.643 13.4766 346.938 13.4089 347.188 13.2734C347.438 13.138 347.63 12.9714 347.766 12.7734C347.906 12.5755 347.979 12.388 347.984 12.2109L348.578 13.1641C348.495 13.3776 348.38 13.599 348.234 13.8281C348.094 14.0573 347.914 14.2734 347.695 14.4766C347.477 14.6745 347.214 14.8385 346.906 14.9688C346.599 15.0938 346.234 15.1562 345.812 15.1562C345.276 15.1562 344.789 15.0495 344.352 14.8359C343.919 14.6172 343.576 14.3177 343.32 13.9375C343.07 13.5521 342.945 13.1146 342.945 12.625C342.945 12.1823 343.029 11.7891 343.195 11.4453C343.362 11.1016 343.607 10.8125 343.93 10.5781C344.258 10.3385 344.667 10.1589 345.156 10.0391C345.646 9.91406 346.214 9.85156 346.859 9.85156H348.164ZM356.438 12.6641C356.438 12.5026 356.391 12.3568 356.297 12.2266C356.203 12.0964 356.029 11.9766 355.773 11.8672C355.523 11.7526 355.161 11.6484 354.688 11.5547C354.26 11.4609 353.862 11.3438 353.492 11.2031C353.128 11.0573 352.81 10.8828 352.539 10.6797C352.273 10.4766 352.065 10.237 351.914 9.96094C351.763 9.67969 351.688 9.35938 351.688 9C351.688 8.64583 351.763 8.3125 351.914 8C352.07 7.6875 352.292 7.41146 352.578 7.17188C352.87 6.92708 353.224 6.73698 353.641 6.60156C354.062 6.46094 354.536 6.39062 355.062 6.39062C355.797 6.39062 356.427 6.50781 356.953 6.74219C357.484 6.97656 357.891 7.29948 358.172 7.71094C358.458 8.11719 358.602 8.58073 358.602 9.10156H356.352C356.352 8.88281 356.305 8.6875 356.211 8.51562C356.122 8.33854 355.982 8.20052 355.789 8.10156C355.602 7.9974 355.357 7.94531 355.055 7.94531C354.805 7.94531 354.589 7.98958 354.406 8.07812C354.224 8.16146 354.083 8.27604 353.984 8.42188C353.891 8.5625 353.844 8.71875 353.844 8.89062C353.844 9.02083 353.87 9.13802 353.922 9.24219C353.979 9.34115 354.07 9.43229 354.195 9.51562C354.32 9.59896 354.482 9.67708 354.68 9.75C354.883 9.81771 355.133 9.88021 355.43 9.9375C356.039 10.0625 356.583 10.2266 357.062 10.4297C357.542 10.6276 357.922 10.8984 358.203 11.2422C358.484 11.5807 358.625 12.026 358.625 12.5781C358.625 12.9531 358.542 13.2969 358.375 13.6094C358.208 13.9219 357.969 14.1953 357.656 14.4297C357.344 14.6589 356.969 14.8385 356.531 14.9688C356.099 15.0938 355.612 15.1562 355.07 15.1562C354.284 15.1562 353.617 15.0156 353.07 14.7344C352.529 14.4531 352.117 14.0964 351.836 13.6641C351.56 13.2266 351.422 12.7786 351.422 12.3203H353.555C353.565 12.6276 353.643 12.875 353.789 13.0625C353.94 13.25 354.13 13.3854 354.359 13.4688C354.594 13.5521 354.846 13.5938 355.117 13.5938C355.409 13.5938 355.651 13.5547 355.844 13.4766C356.036 13.3932 356.182 13.2839 356.281 13.1484C356.385 13.0078 356.438 12.8464 356.438 12.6641Z" fill="#424242"/>
</svg>
