<svg width="48" height="48" viewBox="0 0 48 48" fill="none" xmlns="http://www.w3.org/2000/svg">
<circle cx="24" cy="24" r="24" fill="#008894"/>
<path fill-rule="evenodd" clip-rule="evenodd" d="M26.5749 24.0069L31.6786 18.919C32.1059 18.4911 32.1073 17.7956 31.6819 17.3628L30.6437 16.3216C30.2193 15.8941 29.5244 15.8926 29.0918 16.3184L23.9881 21.4062L18.9357 16.3289C18.5102 15.9003 17.8142 15.8999 17.3795 16.3245L16.3412 17.3602C15.9118 17.787 15.9125 18.4836 16.3379 18.9186L21.3903 23.9959L16.323 29.0422C15.8936 29.4691 15.8921 30.1645 16.3197 30.5995L17.3525 31.6385C17.7801 32.0661 18.474 32.0676 18.9098 31.6418L23.9772 26.5944L29.0349 31.6781C29.4603 32.1057 30.1553 32.1072 30.59 31.6814L31.6283 30.6447C32.0566 30.2179 32.0581 29.5213 31.6316 29.0874L26.5749 24.0069Z" fill="white"/>
</svg>
