<svg width="22" height="24" viewBox="0 0 22 24" fill="none" xmlns="http://www.w3.org/2000/svg">
<path d="M18.7 6.54545C17.7833 6.54545 17.0042 6.22727 16.3625 5.59091C15.7208 4.95455 15.4 4.18182 15.4 3.27273C15.4 2.36364 15.7208 1.59091 16.3625 0.954545C17.0042 0.318182 17.7833 0 18.7 0C19.6167 0 20.3958 0.318182 21.0375 0.954545C21.6792 1.59091 22 2.36364 22 3.27273C22 4.18182 21.6792 4.95455 21.0375 5.59091C20.3958 6.22727 19.6167 6.54545 18.7 6.54545ZM0 24V4.36364C0 3.76364 0.215417 3.25 0.64625 2.82273C1.07708 2.39545 1.595 2.18182 2.2 2.18182H13.31C13.2367 2.54545 13.2 2.90909 13.2 3.27273C13.2 3.63636 13.2367 4 13.31 4.36364C13.4017 4.78182 13.53 5.17273 13.695 5.53636C13.86 5.9 14.0617 6.23636 14.3 6.54545H4.4V8.72727H18.7C19.2867 8.72727 19.8642 8.63636 20.4325 8.45455C21.0008 8.27273 21.5233 8 22 7.63636V17.4545C22 18.0545 21.7846 18.5682 21.3538 18.9955C20.9229 19.4227 20.405 19.6364 19.8 19.6364H4.4L0 24ZM4.4 12H17.6V9.81818H4.4V12ZM4.4 15.2727H13.2V13.0909H4.4V15.2727Z" fill="white"/>
</svg>
