<svg width="48" height="48" viewBox="0 0 48 48" fill="none" xmlns="http://www.w3.org/2000/svg">
<circle cx="24" cy="24" r="24" fill="#A0A0A0"/>
<path d="M31.7 18.5455C30.7833 18.5455 30.0042 18.2273 29.3625 17.5909C28.7208 16.9545 28.4 16.1818 28.4 15.2727C28.4 14.3636 28.7208 13.5909 29.3625 12.9545C30.0042 12.3182 30.7833 12 31.7 12C32.6167 12 33.3958 12.3182 34.0375 12.9545C34.6792 13.5909 35 14.3636 35 15.2727C35 16.1818 34.6792 16.9545 34.0375 17.5909C33.3958 18.2273 32.6167 18.5455 31.7 18.5455ZM13 36V16.3636C13 15.7636 13.2154 15.25 13.6463 14.8227C14.0771 14.3955 14.595 14.1818 15.2 14.1818H26.31C26.2367 14.5455 26.2 14.9091 26.2 15.2727C26.2 15.6364 26.2367 16 26.31 16.3636C26.4017 16.7818 26.53 17.1727 26.695 17.5364C26.86 17.9 27.0617 18.2364 27.3 18.5455H17.4V20.7273H31.7C32.2867 20.7273 32.8642 20.6364 33.4325 20.4545C34.0008 20.2727 34.5233 20 35 19.6364V29.4545C35 30.0545 34.7846 30.5682 34.3538 30.9955C33.9229 31.4227 33.405 31.6364 32.8 31.6364H17.4L13 36ZM17.4 24H30.6V21.8182H17.4V24ZM17.4 27.2727H26.2V25.0909H17.4V27.2727Z" fill="white"/>
</svg>
