<svg width="15" height="20" viewBox="0 0 15 20" fill="none" xmlns="http://www.w3.org/2000/svg">
<mask id="mask0_101_6568" style="mask-type:luminance" maskUnits="userSpaceOnUse" x="0" y="6" width="15" height="14">
<path fill-rule="evenodd" clip-rule="evenodd" d="M0.600586 6.60107H14.4015V20H0.600586V6.60107Z" fill="white"/>
</mask>
<g mask="url(#mask0_101_6568)">
<path fill-rule="evenodd" clip-rule="evenodd" d="M13.9206 20.0001H1.08253C0.815242 20.0001 0.600586 19.7921 0.600586 19.5321V6.60107H14.4015V19.5321C14.4015 19.7901 14.1848 20.0001 13.9206 20.0001ZM3.92902 8.34607C3.49351 8.34607 3.1416 8.68907 3.1416 9.10907V17.4941C3.1416 17.9161 3.49558 18.2561 3.92902 18.2561H3.9445C4.38 18.2561 4.73191 17.9141 4.73191 17.4941V9.10907C4.73191 8.68707 4.37794 8.34607 3.9445 8.34607H3.92902ZM7.49339 8.34607C7.05789 8.34607 6.70598 8.68907 6.70598 9.10907V17.4941C6.70598 17.9161 7.05995 18.2561 7.49339 18.2561H7.50887C7.94438 18.2561 8.29629 17.9141 8.29629 17.4941V9.10907C8.29629 8.68707 7.94231 8.34607 7.50887 8.34607H7.49339ZM10.2706 9.10907C10.2706 8.68907 10.6225 8.34607 11.058 8.34607H11.0745C11.5069 8.34607 11.8609 8.68707 11.8609 9.10907V17.4941C11.8609 17.9141 11.509 18.2561 11.0745 18.2561H11.058C10.6246 18.2561 10.2706 17.9161 10.2706 17.4941V9.10907Z" fill="#008894"/>
</g>
<mask id="mask1_101_6568" style="mask-type:luminance" maskUnits="userSpaceOnUse" x="4" y="0" width="7" height="3">
<path fill-rule="evenodd" clip-rule="evenodd" d="M4.42383 0H10.5787V2.2146H4.42383V0Z" fill="white"/>
</mask>
<g mask="url(#mask1_101_6568)">
<path d="M10.5787 2.21451V1.16551C10.5787 0.522512 10.04 -0.000488281 9.37536 -0.000488281H5.62611C4.96253 -0.000488281 4.42383 0.522512 4.42383 1.16551V2.21451H5.38668V1.39851C5.38668 1.14351 5.6034 0.933512 5.86759 0.933512H9.13181C9.396 0.933512 9.61272 1.14351 9.61272 1.39851V2.21451H10.5787Z" fill="#008894"/>
</g>
<mask id="mask2_101_6568" style="mask-type:luminance" maskUnits="userSpaceOnUse" x="0" y="3" width="15" height="3">
<path fill-rule="evenodd" clip-rule="evenodd" d="M0 3.14722H15V5.66922H0V3.14722Z" fill="white"/>
</mask>
<g mask="url(#mask2_101_6568)">
<path d="M0 3.61322V5.20322C0 5.45922 0.215688 5.66922 0.480911 5.66922H14.5192C14.7844 5.66922 15.0001 5.45922 15.0001 5.20322V3.61322C15.0001 3.35622 14.7844 3.14722 14.5192 3.14722H0.480911C0.215688 3.14722 0 3.35322 0 3.61322Z" fill="#008894"/>
</g>
</svg>
