<svg width="134" height="20" viewBox="0 0 134 20" fill="none" xmlns="http://www.w3.org/2000/svg">
<rect x="0.5" y="0.5" width="133" height="19" rx="5.5" fill="white"/>
<path d="M10.584 10.959H8.41016V9.58789H10.584C10.9199 9.58789 11.1934 9.5332 11.4043 9.42383C11.6152 9.31055 11.7695 9.1543 11.8672 8.95508C11.9648 8.75586 12.0137 8.53125 12.0137 8.28125C12.0137 8.02734 11.9648 7.79102 11.8672 7.57227C11.7695 7.35352 11.6152 7.17773 11.4043 7.04492C11.1934 6.91211 10.9199 6.8457 10.584 6.8457H9.01953V14H7.26172V5.46875H10.584C11.252 5.46875 11.8242 5.58984 12.3008 5.83203C12.7812 6.07031 13.1484 6.40039 13.4023 6.82227C13.6562 7.24414 13.7832 7.72656 13.7832 8.26953C13.7832 8.82031 13.6562 9.29688 13.4023 9.69922C13.1484 10.1016 12.7812 10.4121 12.3008 10.6309C11.8242 10.8496 11.252 10.959 10.584 10.959ZM17.7266 14.1172C17.2344 14.1172 16.793 14.0391 16.4023 13.8828C16.0117 13.7227 15.6797 13.502 15.4062 13.2207C15.1367 12.9395 14.9297 12.6133 14.7852 12.2422C14.6406 11.8672 14.5684 11.4688 14.5684 11.0469V10.8125C14.5684 10.332 14.6367 9.89258 14.7734 9.49414C14.9102 9.0957 15.1055 8.75 15.3594 8.45703C15.6172 8.16406 15.9297 7.93945 16.2969 7.7832C16.6641 7.62305 17.0781 7.54297 17.5391 7.54297C17.9883 7.54297 18.3867 7.61719 18.7344 7.76562C19.082 7.91406 19.373 8.125 19.6074 8.39844C19.8457 8.67188 20.0254 9 20.1465 9.38281C20.2676 9.76172 20.3281 10.1836 20.3281 10.6484V11.3516H15.2891V10.2266H18.6699V10.0977C18.6699 9.86328 18.627 9.6543 18.541 9.4707C18.459 9.2832 18.334 9.13477 18.166 9.02539C17.998 8.91602 17.7832 8.86133 17.5215 8.86133C17.2988 8.86133 17.1074 8.91016 16.9473 9.00781C16.7871 9.10547 16.6562 9.24219 16.5547 9.41797C16.457 9.59375 16.3828 9.80078 16.332 10.0391C16.2852 10.2734 16.2617 10.5312 16.2617 10.8125V11.0469C16.2617 11.3008 16.2969 11.5352 16.3672 11.75C16.4414 11.9648 16.5449 12.1504 16.6777 12.3066C16.8145 12.4629 16.9785 12.584 17.1699 12.6699C17.3652 12.7559 17.5859 12.7988 17.832 12.7988C18.1367 12.7988 18.4199 12.7402 18.6816 12.623C18.9473 12.502 19.1758 12.3203 19.3672 12.0781L20.1875 12.9688C20.0547 13.1602 19.873 13.3438 19.6426 13.5195C19.416 13.6953 19.1426 13.8398 18.8223 13.9531C18.502 14.0625 18.1367 14.1172 17.7266 14.1172ZM22.9414 9.01367V14H21.2539V7.66016H22.8359L22.9414 9.01367ZM22.6953 10.6074H22.2383C22.2383 10.1387 22.2988 9.7168 22.4199 9.3418C22.541 8.96289 22.7109 8.64062 22.9297 8.375C23.1484 8.10547 23.4082 7.90039 23.709 7.75977C24.0137 7.61523 24.3535 7.54297 24.7285 7.54297C25.0254 7.54297 25.2969 7.58594 25.543 7.67188C25.7891 7.75781 26 7.89453 26.1758 8.08203C26.3555 8.26953 26.4922 8.51758 26.5859 8.82617C26.6836 9.13477 26.7324 9.51172 26.7324 9.95703V14H25.0332V9.95117C25.0332 9.66992 24.9941 9.45117 24.916 9.29492C24.8379 9.13867 24.7227 9.0293 24.5703 8.9668C24.4219 8.90039 24.2383 8.86719 24.0195 8.86719C23.793 8.86719 23.5957 8.91211 23.4277 9.00195C23.2637 9.0918 23.127 9.2168 23.0176 9.37695C22.9121 9.5332 22.832 9.7168 22.7773 9.92773C22.7227 10.1387 22.6953 10.3652 22.6953 10.6074ZM31.7598 12.6172V5H33.459V14H31.9297L31.7598 12.6172ZM27.752 10.9062V10.7832C27.752 10.2988 27.8066 9.85938 27.916 9.46484C28.0254 9.06641 28.1855 8.72461 28.3965 8.43945C28.6074 8.1543 28.8672 7.93359 29.1758 7.77734C29.4844 7.62109 29.8359 7.54297 30.2305 7.54297C30.6016 7.54297 30.9258 7.62109 31.2031 7.77734C31.4844 7.93359 31.7227 8.15625 31.918 8.44531C32.1172 8.73047 32.2773 9.06836 32.3984 9.45898C32.5195 9.8457 32.6074 10.2695 32.6621 10.7305V11C32.6074 11.4414 32.5195 11.8516 32.3984 12.2305C32.2773 12.6094 32.1172 12.9414 31.918 13.2266C31.7227 13.5078 31.4844 13.7266 31.2031 13.8828C30.9219 14.0391 30.5938 14.1172 30.2188 14.1172C29.8242 14.1172 29.4727 14.0371 29.1641 13.877C28.8594 13.7168 28.6016 13.4922 28.3906 13.2031C28.1836 12.9141 28.0254 12.5742 27.916 12.1836C27.8066 11.793 27.752 11.3672 27.752 10.9062ZM29.4395 10.7832V10.9062C29.4395 11.168 29.459 11.4121 29.498 11.6387C29.541 11.8652 29.6094 12.0664 29.7031 12.2422C29.8008 12.4141 29.9258 12.5488 30.0781 12.6465C30.2344 12.7402 30.4238 12.7871 30.6465 12.7871C30.9355 12.7871 31.1738 12.7227 31.3613 12.5938C31.5488 12.4609 31.6914 12.2793 31.7891 12.0488C31.8906 11.8184 31.9492 11.5527 31.9648 11.252V10.4844C31.9531 10.2383 31.918 10.0176 31.8594 9.82227C31.8047 9.62305 31.7227 9.45312 31.6133 9.3125C31.5078 9.17188 31.375 9.0625 31.2148 8.98438C31.0586 8.90625 30.873 8.86719 30.6582 8.86719C30.4395 8.86719 30.252 8.91797 30.0957 9.01953C29.9395 9.11719 29.8125 9.25195 29.7148 9.42383C29.6211 9.5957 29.5508 9.79883 29.5039 10.0332C29.4609 10.2637 29.4395 10.5137 29.4395 10.7832ZM36.5586 7.66016V14H34.8652V7.66016H36.5586ZM34.7598 6.00781C34.7598 5.76172 34.8457 5.55859 35.0176 5.39844C35.1895 5.23828 35.4199 5.1582 35.709 5.1582C35.9941 5.1582 36.2227 5.23828 36.3945 5.39844C36.5703 5.55859 36.6582 5.76172 36.6582 6.00781C36.6582 6.25391 36.5703 6.45703 36.3945 6.61719C36.2227 6.77734 35.9941 6.85742 35.709 6.85742C35.4199 6.85742 35.1895 6.77734 35.0176 6.61719C34.8457 6.45703 34.7598 6.25391 34.7598 6.00781ZM40.8711 14.1172C40.3789 14.1172 39.9375 14.0391 39.5469 13.8828C39.1562 13.7227 38.8242 13.502 38.5508 13.2207C38.2812 12.9395 38.0742 12.6133 37.9297 12.2422C37.7852 11.8672 37.7129 11.4688 37.7129 11.0469V10.8125C37.7129 10.332 37.7812 9.89258 37.918 9.49414C38.0547 9.0957 38.25 8.75 38.5039 8.45703C38.7617 8.16406 39.0742 7.93945 39.4414 7.7832C39.8086 7.62305 40.2227 7.54297 40.6836 7.54297C41.1328 7.54297 41.5312 7.61719 41.8789 7.76562C42.2266 7.91406 42.5176 8.125 42.752 8.39844C42.9902 8.67188 43.1699 9 43.291 9.38281C43.4121 9.76172 43.4727 10.1836 43.4727 10.6484V11.3516H38.4336V10.2266H41.8145V10.0977C41.8145 9.86328 41.7715 9.6543 41.6855 9.4707C41.6035 9.2832 41.4785 9.13477 41.3105 9.02539C41.1426 8.91602 40.9277 8.86133 40.666 8.86133C40.4434 8.86133 40.252 8.91016 40.0918 9.00781C39.9316 9.10547 39.8008 9.24219 39.6992 9.41797C39.6016 9.59375 39.5273 9.80078 39.4766 10.0391C39.4297 10.2734 39.4062 10.5312 39.4062 10.8125V11.0469C39.4062 11.3008 39.4414 11.5352 39.5117 11.75C39.5859 11.9648 39.6895 12.1504 39.8223 12.3066C39.959 12.4629 40.123 12.584 40.3145 12.6699C40.5098 12.7559 40.7305 12.7988 40.9766 12.7988C41.2812 12.7988 41.5645 12.7402 41.8262 12.623C42.0918 12.502 42.3203 12.3203 42.5117 12.0781L43.332 12.9688C43.1992 13.1602 43.0176 13.3438 42.7871 13.5195C42.5605 13.6953 42.2871 13.8398 41.9668 13.9531C41.6465 14.0625 41.2812 14.1172 40.8711 14.1172ZM46.0859 9.01367V14H44.3984V7.66016H45.9805L46.0859 9.01367ZM45.8398 10.6074H45.3828C45.3828 10.1387 45.4434 9.7168 45.5645 9.3418C45.6855 8.96289 45.8555 8.64062 46.0742 8.375C46.293 8.10547 46.5527 7.90039 46.8535 7.75977C47.1582 7.61523 47.498 7.54297 47.873 7.54297C48.1699 7.54297 48.4414 7.58594 48.6875 7.67188C48.9336 7.75781 49.1445 7.89453 49.3203 8.08203C49.5 8.26953 49.6367 8.51758 49.7305 8.82617C49.8281 9.13477 49.877 9.51172 49.877 9.95703V14H48.1777V9.95117C48.1777 9.66992 48.1387 9.45117 48.0605 9.29492C47.9824 9.13867 47.8672 9.0293 47.7148 8.9668C47.5664 8.90039 47.3828 8.86719 47.1641 8.86719C46.9375 8.86719 46.7402 8.91211 46.5723 9.00195C46.4082 9.0918 46.2715 9.2168 46.1621 9.37695C46.0566 9.5332 45.9766 9.7168 45.9219 9.92773C45.8672 10.1387 45.8398 10.3652 45.8398 10.6074ZM54.2656 7.66016V8.85547H50.5742V7.66016H54.2656ZM51.4883 6.0957H53.1758V12.0898C53.1758 12.2734 53.1992 12.4141 53.2461 12.5117C53.2969 12.6094 53.3711 12.6777 53.4688 12.7168C53.5664 12.752 53.6895 12.7695 53.8379 12.7695C53.9434 12.7695 54.0371 12.7656 54.1191 12.7578C54.2051 12.7461 54.2773 12.7344 54.3359 12.7227L54.3418 13.9648C54.1973 14.0117 54.041 14.0488 53.873 14.0762C53.7051 14.1035 53.5195 14.1172 53.3164 14.1172C52.9453 14.1172 52.6211 14.0566 52.3438 13.9355C52.0703 13.8105 51.8594 13.6113 51.7109 13.3379C51.5625 13.0645 51.4883 12.7051 51.4883 12.2598V6.0957ZM58.1445 14.1172C57.6523 14.1172 57.2109 14.0391 56.8203 13.8828C56.4297 13.7227 56.0977 13.502 55.8242 13.2207C55.5547 12.9395 55.3477 12.6133 55.2031 12.2422C55.0586 11.8672 54.9863 11.4688 54.9863 11.0469V10.8125C54.9863 10.332 55.0547 9.89258 55.1914 9.49414C55.3281 9.0957 55.5234 8.75 55.7773 8.45703C56.0352 8.16406 56.3477 7.93945 56.7148 7.7832C57.082 7.62305 57.4961 7.54297 57.957 7.54297C58.4062 7.54297 58.8047 7.61719 59.1523 7.76562C59.5 7.91406 59.791 8.125 60.0254 8.39844C60.2637 8.67188 60.4434 9 60.5645 9.38281C60.6855 9.76172 60.7461 10.1836 60.7461 10.6484V11.3516H55.707V10.2266H59.0879V10.0977C59.0879 9.86328 59.0449 9.6543 58.959 9.4707C58.877 9.2832 58.752 9.13477 58.584 9.02539C58.416 8.91602 58.2012 8.86133 57.9395 8.86133C57.7168 8.86133 57.5254 8.91016 57.3652 9.00781C57.2051 9.10547 57.0742 9.24219 56.9727 9.41797C56.875 9.59375 56.8008 9.80078 56.75 10.0391C56.7031 10.2734 56.6797 10.5312 56.6797 10.8125V11.0469C56.6797 11.3008 56.7148 11.5352 56.7852 11.75C56.8594 11.9648 56.9629 12.1504 57.0957 12.3066C57.2324 12.4629 57.3965 12.584 57.5879 12.6699C57.7832 12.7559 58.0039 12.7988 58.25 12.7988C58.5547 12.7988 58.8379 12.7402 59.0996 12.623C59.3652 12.502 59.5938 12.3203 59.7852 12.0781L60.6055 12.9688C60.4727 13.1602 60.291 13.3438 60.0605 13.5195C59.834 13.6953 59.5605 13.8398 59.2402 13.9531C58.9199 14.0625 58.5547 14.1172 58.1445 14.1172ZM66.3828 8.87891V16.4375H64.6953V7.66016H66.2598L66.3828 8.87891ZM70.3965 10.7598V10.8828C70.3965 11.3438 70.3418 11.7715 70.2324 12.166C70.127 12.5605 69.9707 12.9043 69.7637 13.1973C69.5566 13.4863 69.2988 13.7129 68.9902 13.877C68.6855 14.0371 68.334 14.1172 67.9355 14.1172C67.5488 14.1172 67.2129 14.0391 66.9277 13.8828C66.6426 13.7266 66.4023 13.5078 66.207 13.2266C66.0156 12.9414 65.8613 12.6113 65.7441 12.2363C65.627 11.8613 65.5371 11.459 65.4746 11.0293V10.707C65.5371 10.2461 65.627 9.82422 65.7441 9.44141C65.8613 9.05469 66.0156 8.7207 66.207 8.43945C66.4023 8.1543 66.6406 7.93359 66.9219 7.77734C67.207 7.62109 67.541 7.54297 67.9238 7.54297C68.3262 7.54297 68.6797 7.61914 68.9844 7.77148C69.293 7.92383 69.5508 8.14258 69.7578 8.42773C69.9688 8.71289 70.127 9.05273 70.2324 9.44727C70.3418 9.8418 70.3965 10.2793 70.3965 10.7598ZM68.7031 10.8828V10.7598C68.7031 10.4902 68.6797 10.2422 68.6328 10.0156C68.5898 9.78516 68.5195 9.58398 68.4219 9.41211C68.3281 9.24023 68.2031 9.10742 68.0469 9.01367C67.8945 8.91602 67.709 8.86719 67.4902 8.86719C67.2598 8.86719 67.0625 8.9043 66.8984 8.97852C66.7383 9.05273 66.6074 9.16016 66.5059 9.30078C66.4043 9.44141 66.3281 9.60938 66.2773 9.80469C66.2266 10 66.1953 10.2207 66.1836 10.4668V11.2812C66.2031 11.5703 66.2578 11.8301 66.3477 12.0605C66.4375 12.2871 66.5762 12.4668 66.7637 12.5996C66.9512 12.7324 67.1973 12.7988 67.502 12.7988C67.7246 12.7988 67.9121 12.75 68.0645 12.6523C68.2168 12.5508 68.3398 12.4121 68.4336 12.2363C68.5312 12.0605 68.5996 11.8574 68.6387 11.627C68.6816 11.3965 68.7031 11.1484 68.7031 10.8828ZM71.1758 10.8945V10.7715C71.1758 10.3066 71.2422 9.87891 71.375 9.48828C71.5078 9.09375 71.7012 8.75195 71.9551 8.46289C72.209 8.17383 72.5215 7.94922 72.8926 7.78906C73.2637 7.625 73.6895 7.54297 74.1699 7.54297C74.6504 7.54297 75.0781 7.625 75.4531 7.78906C75.8281 7.94922 76.1426 8.17383 76.3965 8.46289C76.6543 8.75195 76.8496 9.09375 76.9824 9.48828C77.1152 9.87891 77.1816 10.3066 77.1816 10.7715V10.8945C77.1816 11.3555 77.1152 11.7832 76.9824 12.1777C76.8496 12.5684 76.6543 12.9102 76.3965 13.2031C76.1426 13.4922 75.8301 13.7168 75.459 13.877C75.0879 14.0371 74.6621 14.1172 74.1816 14.1172C73.7012 14.1172 73.2734 14.0371 72.8984 13.877C72.5273 13.7168 72.2129 13.4922 71.9551 13.2031C71.7012 12.9102 71.5078 12.5684 71.375 12.1777C71.2422 11.7832 71.1758 11.3555 71.1758 10.8945ZM72.8633 10.7715V10.8945C72.8633 11.1602 72.8867 11.4082 72.9336 11.6387C72.9805 11.8691 73.0547 12.0723 73.1562 12.248C73.2617 12.4199 73.3984 12.5547 73.5664 12.6523C73.7344 12.75 73.9395 12.7988 74.1816 12.7988C74.416 12.7988 74.6172 12.75 74.7852 12.6523C74.9531 12.5547 75.0879 12.4199 75.1895 12.248C75.291 12.0723 75.3652 11.8691 75.4121 11.6387C75.4629 11.4082 75.4883 11.1602 75.4883 10.8945V10.7715C75.4883 10.5137 75.4629 10.2715 75.4121 10.0449C75.3652 9.81445 75.2891 9.61133 75.1836 9.43555C75.082 9.25586 74.9473 9.11523 74.7793 9.01367C74.6113 8.91211 74.4082 8.86133 74.1699 8.86133C73.9316 8.86133 73.7285 8.91211 73.5605 9.01367C73.3965 9.11523 73.2617 9.25586 73.1562 9.43555C73.0547 9.61133 72.9805 9.81445 72.9336 10.0449C72.8867 10.2715 72.8633 10.5137 72.8633 10.7715ZM79.9062 9.04297V14H78.2188V7.66016H79.8066L79.9062 9.04297ZM81.8164 7.61914L81.7871 9.18359C81.7051 9.17188 81.6055 9.16211 81.4883 9.1543C81.375 9.14258 81.2715 9.13672 81.1777 9.13672C80.9395 9.13672 80.7324 9.16797 80.5566 9.23047C80.3848 9.28906 80.2402 9.37695 80.123 9.49414C80.0098 9.61133 79.9238 9.75391 79.8652 9.92188C79.8105 10.0898 79.7793 10.2812 79.7715 10.4961L79.4316 10.3906C79.4316 9.98047 79.4727 9.60352 79.5547 9.25977C79.6367 8.91211 79.7559 8.60938 79.9121 8.35156C80.0723 8.09375 80.2676 7.89453 80.498 7.75391C80.7285 7.61328 80.9922 7.54297 81.2891 7.54297C81.3828 7.54297 81.4785 7.55078 81.5762 7.56641C81.6738 7.57812 81.7539 7.5957 81.8164 7.61914ZM89.0234 12.5703V9.74609C89.0234 9.54297 88.9902 9.36914 88.9238 9.22461C88.8574 9.07617 88.7539 8.96094 88.6133 8.87891C88.4766 8.79688 88.2988 8.75586 88.0801 8.75586C87.8926 8.75586 87.7305 8.78906 87.5938 8.85547C87.457 8.91797 87.3516 9.00977 87.2773 9.13086C87.2031 9.24805 87.166 9.38672 87.166 9.54688H85.4785C85.4785 9.27734 85.541 9.02148 85.666 8.7793C85.791 8.53711 85.9727 8.32422 86.2109 8.14062C86.4492 7.95312 86.7324 7.80664 87.0605 7.70117C87.3926 7.5957 87.7637 7.54297 88.1738 7.54297C88.666 7.54297 89.1035 7.625 89.4863 7.78906C89.8691 7.95312 90.1699 8.19922 90.3887 8.52734C90.6113 8.85547 90.7227 9.26562 90.7227 9.75781V12.4707C90.7227 12.8184 90.7441 13.1035 90.7871 13.3262C90.8301 13.5449 90.8926 13.7363 90.9746 13.9004V14H89.2695C89.1875 13.8281 89.125 13.6133 89.082 13.3555C89.043 13.0938 89.0234 12.832 89.0234 12.5703ZM89.2461 10.1387L89.2578 11.0938H88.3145C88.0918 11.0938 87.8984 11.1191 87.7344 11.1699C87.5703 11.2207 87.4355 11.293 87.3301 11.3867C87.2246 11.4766 87.1465 11.582 87.0957 11.7031C87.0488 11.8242 87.0254 11.957 87.0254 12.1016C87.0254 12.2461 87.0586 12.377 87.125 12.4941C87.1914 12.6074 87.2871 12.6973 87.4121 12.7637C87.5371 12.8262 87.6836 12.8574 87.8516 12.8574C88.1055 12.8574 88.3262 12.8066 88.5137 12.7051C88.7012 12.6035 88.8457 12.4785 88.9473 12.3301C89.0527 12.1816 89.1074 12.041 89.1113 11.9082L89.5566 12.623C89.4941 12.7832 89.4082 12.9492 89.2988 13.1211C89.1934 13.293 89.0586 13.4551 88.8945 13.6074C88.7305 13.7559 88.5332 13.8789 88.3027 13.9766C88.0723 14.0703 87.7988 14.1172 87.4824 14.1172C87.0801 14.1172 86.7148 14.0371 86.3867 13.877C86.0625 13.7129 85.8047 13.4883 85.6133 13.2031C85.4258 12.9141 85.332 12.5859 85.332 12.2188C85.332 11.8867 85.3945 11.5918 85.5195 11.334C85.6445 11.0762 85.8281 10.8594 86.0703 10.6836C86.3164 10.5039 86.623 10.3691 86.9902 10.2793C87.3574 10.1855 87.7832 10.1387 88.2676 10.1387H89.2461ZM93.7109 8.87891V16.4375H92.0234V7.66016H93.5879L93.7109 8.87891ZM97.7246 10.7598V10.8828C97.7246 11.3438 97.6699 11.7715 97.5605 12.166C97.4551 12.5605 97.2988 12.9043 97.0918 13.1973C96.8848 13.4863 96.627 13.7129 96.3184 13.877C96.0137 14.0371 95.6621 14.1172 95.2637 14.1172C94.877 14.1172 94.541 14.0391 94.2559 13.8828C93.9707 13.7266 93.7305 13.5078 93.5352 13.2266C93.3438 12.9414 93.1895 12.6113 93.0723 12.2363C92.9551 11.8613 92.8652 11.459 92.8027 11.0293V10.707C92.8652 10.2461 92.9551 9.82422 93.0723 9.44141C93.1895 9.05469 93.3438 8.7207 93.5352 8.43945C93.7305 8.1543 93.9688 7.93359 94.25 7.77734C94.5352 7.62109 94.8691 7.54297 95.252 7.54297C95.6543 7.54297 96.0078 7.61914 96.3125 7.77148C96.6211 7.92383 96.8789 8.14258 97.0859 8.42773C97.2969 8.71289 97.4551 9.05273 97.5605 9.44727C97.6699 9.8418 97.7246 10.2793 97.7246 10.7598ZM96.0312 10.8828V10.7598C96.0312 10.4902 96.0078 10.2422 95.9609 10.0156C95.918 9.78516 95.8477 9.58398 95.75 9.41211C95.6562 9.24023 95.5312 9.10742 95.375 9.01367C95.2227 8.91602 95.0371 8.86719 94.8184 8.86719C94.5879 8.86719 94.3906 8.9043 94.2266 8.97852C94.0664 9.05273 93.9355 9.16016 93.834 9.30078C93.7324 9.44141 93.6562 9.60938 93.6055 9.80469C93.5547 10 93.5234 10.2207 93.5117 10.4668V11.2812C93.5312 11.5703 93.5859 11.8301 93.6758 12.0605C93.7656 12.2871 93.9043 12.4668 94.0918 12.5996C94.2793 12.7324 94.5254 12.7988 94.8301 12.7988C95.0527 12.7988 95.2402 12.75 95.3926 12.6523C95.5449 12.5508 95.668 12.4121 95.7617 12.2363C95.8594 12.0605 95.9277 11.8574 95.9668 11.627C96.0098 11.3965 96.0312 11.1484 96.0312 10.8828ZM100.461 9.04297V14H98.7734V7.66016H100.361L100.461 9.04297ZM102.371 7.61914L102.342 9.18359C102.26 9.17188 102.16 9.16211 102.043 9.1543C101.93 9.14258 101.826 9.13672 101.732 9.13672C101.494 9.13672 101.287 9.16797 101.111 9.23047C100.939 9.28906 100.795 9.37695 100.678 9.49414C100.564 9.61133 100.479 9.75391 100.42 9.92188C100.365 10.0898 100.334 10.2812 100.326 10.4961L99.9863 10.3906C99.9863 9.98047 100.027 9.60352 100.109 9.25977C100.191 8.91211 100.311 8.60938 100.467 8.35156C100.627 8.09375 100.822 7.89453 101.053 7.75391C101.283 7.61328 101.547 7.54297 101.844 7.54297C101.938 7.54297 102.033 7.55078 102.131 7.56641C102.229 7.57812 102.309 7.5957 102.371 7.61914ZM102.723 10.8945V10.7715C102.723 10.3066 102.789 9.87891 102.922 9.48828C103.055 9.09375 103.248 8.75195 103.502 8.46289C103.756 8.17383 104.068 7.94922 104.439 7.78906C104.811 7.625 105.236 7.54297 105.717 7.54297C106.197 7.54297 106.625 7.625 107 7.78906C107.375 7.94922 107.689 8.17383 107.943 8.46289C108.201 8.75195 108.396 9.09375 108.529 9.48828C108.662 9.87891 108.729 10.3066 108.729 10.7715V10.8945C108.729 11.3555 108.662 11.7832 108.529 12.1777C108.396 12.5684 108.201 12.9102 107.943 13.2031C107.689 13.4922 107.377 13.7168 107.006 13.877C106.635 14.0371 106.209 14.1172 105.729 14.1172C105.248 14.1172 104.82 14.0371 104.445 13.877C104.074 13.7168 103.76 13.4922 103.502 13.2031C103.248 12.9102 103.055 12.5684 102.922 12.1777C102.789 11.7832 102.723 11.3555 102.723 10.8945ZM104.41 10.7715V10.8945C104.41 11.1602 104.434 11.4082 104.48 11.6387C104.527 11.8691 104.602 12.0723 104.703 12.248C104.809 12.4199 104.945 12.5547 105.113 12.6523C105.281 12.75 105.486 12.7988 105.729 12.7988C105.963 12.7988 106.164 12.75 106.332 12.6523C106.5 12.5547 106.635 12.4199 106.736 12.248C106.838 12.0723 106.912 11.8691 106.959 11.6387C107.01 11.4082 107.035 11.1602 107.035 10.8945V10.7715C107.035 10.5137 107.01 10.2715 106.959 10.0449C106.912 9.81445 106.836 9.61133 106.73 9.43555C106.629 9.25586 106.494 9.11523 106.326 9.01367C106.158 8.91211 105.955 8.86133 105.717 8.86133C105.479 8.86133 105.275 8.91211 105.107 9.01367C104.943 9.11523 104.809 9.25586 104.703 9.43555C104.602 9.61133 104.527 9.81445 104.48 10.0449C104.434 10.2715 104.41 10.5137 104.41 10.7715ZM109.766 5H111.453V12.5469L111.283 14H109.766V5ZM115.467 10.7656V10.8887C115.467 11.3613 115.416 11.7949 115.314 12.1895C115.217 12.584 115.064 12.9258 114.857 13.2148C114.65 13.5 114.393 13.7227 114.084 13.8828C113.779 14.0391 113.42 14.1172 113.006 14.1172C112.619 14.1172 112.283 14.0391 111.998 13.8828C111.717 13.7266 111.48 13.5059 111.289 13.2207C111.098 12.9355 110.943 12.6016 110.826 12.2188C110.709 11.8359 110.621 11.418 110.562 10.9648V10.6953C110.621 10.2422 110.709 9.82422 110.826 9.44141C110.943 9.05859 111.098 8.72461 111.289 8.43945C111.48 8.1543 111.717 7.93359 111.998 7.77734C112.279 7.62109 112.611 7.54297 112.994 7.54297C113.412 7.54297 113.775 7.62305 114.084 7.7832C114.396 7.93945 114.654 8.16211 114.857 8.45117C115.064 8.73633 115.217 9.07617 115.314 9.4707C115.416 9.86133 115.467 10.293 115.467 10.7656ZM113.779 10.8887V10.7656C113.779 10.5078 113.76 10.2656 113.721 10.0391C113.686 9.80859 113.623 9.60742 113.533 9.43555C113.443 9.25977 113.32 9.12109 113.164 9.01953C113.012 8.91797 112.814 8.86719 112.572 8.86719C112.342 8.86719 112.146 8.90625 111.986 8.98438C111.826 9.0625 111.693 9.17188 111.588 9.3125C111.486 9.45312 111.41 9.62109 111.359 9.81641C111.309 10.0078 111.277 10.2188 111.266 10.4492V11.2168C111.277 11.5254 111.328 11.7988 111.418 12.0371C111.512 12.2715 111.652 12.457 111.84 12.5938C112.031 12.7266 112.279 12.793 112.584 12.793C112.822 12.793 113.02 12.7461 113.176 12.6523C113.332 12.5586 113.453 12.4258 113.539 12.2539C113.629 12.082 113.691 11.8809 113.727 11.6504C113.762 11.416 113.779 11.1621 113.779 10.8887ZM119.938 12.5703V9.74609C119.938 9.54297 119.904 9.36914 119.838 9.22461C119.771 9.07617 119.668 8.96094 119.527 8.87891C119.391 8.79688 119.213 8.75586 118.994 8.75586C118.807 8.75586 118.645 8.78906 118.508 8.85547C118.371 8.91797 118.266 9.00977 118.191 9.13086C118.117 9.24805 118.08 9.38672 118.08 9.54688H116.393C116.393 9.27734 116.455 9.02148 116.58 8.7793C116.705 8.53711 116.887 8.32422 117.125 8.14062C117.363 7.95312 117.646 7.80664 117.975 7.70117C118.307 7.5957 118.678 7.54297 119.088 7.54297C119.58 7.54297 120.018 7.625 120.4 7.78906C120.783 7.95312 121.084 8.19922 121.303 8.52734C121.525 8.85547 121.637 9.26562 121.637 9.75781V12.4707C121.637 12.8184 121.658 13.1035 121.701 13.3262C121.744 13.5449 121.807 13.7363 121.889 13.9004V14H120.184C120.102 13.8281 120.039 13.6133 119.996 13.3555C119.957 13.0938 119.938 12.832 119.938 12.5703ZM120.16 10.1387L120.172 11.0938H119.229C119.006 11.0938 118.812 11.1191 118.648 11.1699C118.484 11.2207 118.35 11.293 118.244 11.3867C118.139 11.4766 118.061 11.582 118.01 11.7031C117.963 11.8242 117.939 11.957 117.939 12.1016C117.939 12.2461 117.973 12.377 118.039 12.4941C118.105 12.6074 118.201 12.6973 118.326 12.7637C118.451 12.8262 118.598 12.8574 118.766 12.8574C119.02 12.8574 119.24 12.8066 119.428 12.7051C119.615 12.6035 119.76 12.4785 119.861 12.3301C119.967 12.1816 120.021 12.041 120.025 11.9082L120.471 12.623C120.408 12.7832 120.322 12.9492 120.213 13.1211C120.107 13.293 119.973 13.4551 119.809 13.6074C119.645 13.7559 119.447 13.8789 119.217 13.9766C118.986 14.0703 118.713 14.1172 118.396 14.1172C117.994 14.1172 117.629 14.0371 117.301 13.877C116.977 13.7129 116.719 13.4883 116.527 13.2031C116.34 12.9141 116.246 12.5859 116.246 12.2188C116.246 11.8867 116.309 11.5918 116.434 11.334C116.559 11.0762 116.742 10.8594 116.984 10.6836C117.23 10.5039 117.537 10.3691 117.904 10.2793C118.271 10.1855 118.697 10.1387 119.182 10.1387H120.16ZM124.625 9.04297V14H122.938V7.66016H124.525L124.625 9.04297ZM126.535 7.61914L126.506 9.18359C126.424 9.17188 126.324 9.16211 126.207 9.1543C126.094 9.14258 125.99 9.13672 125.896 9.13672C125.658 9.13672 125.451 9.16797 125.275 9.23047C125.104 9.28906 124.959 9.37695 124.842 9.49414C124.729 9.61133 124.643 9.75391 124.584 9.92188C124.529 10.0898 124.498 10.2812 124.49 10.4961L124.15 10.3906C124.15 9.98047 124.191 9.60352 124.273 9.25977C124.355 8.91211 124.475 8.60938 124.631 8.35156C124.791 8.09375 124.986 7.89453 125.217 7.75391C125.447 7.61328 125.711 7.54297 126.008 7.54297C126.102 7.54297 126.197 7.55078 126.295 7.56641C126.393 7.57812 126.473 7.5957 126.535 7.61914Z" fill="#BE2016"/>
<rect x="0.5" y="0.5" width="133" height="19" rx="5.5" stroke="#BE2016"/>
</svg>
